<mxfile host="app.diagrams.net" modified="2024-06-19T14:23:29.210Z" agent="Mozilla/5.0 (Windows NT 10.0; Win64; x64) AppleWebKit/537.36 (KHTML, like Gecko) Chrome/121.0.0.0 Safari/537.36" etag="UI_Mq8gbbe8oQ5GARdVL" version="24.5.5" type="device">
  <diagram name="Página-1" id="4BIrzUhfpTvusQMk5djj">
    <mxGraphModel dx="1647" dy="877" grid="1" gridSize="10" guides="1" tooltips="1" connect="1" arrows="1" fold="1" page="1" pageScale="1" pageWidth="827" pageHeight="1169" math="0" shadow="0">
      <root>
        <mxCell id="0" />
        <mxCell id="1" parent="0" />
        <mxCell id="YxBRKFH5x1Np5lWWQdls-12" value="" style="group" vertex="1" connectable="0" parent="1">
          <mxGeometry x="39.99999999999997" y="40" width="290" height="540" as="geometry" />
        </mxCell>
        <mxCell id="YxBRKFH5x1Np5lWWQdls-1" value="" style="shape=ext;double=1;rounded=1;whiteSpace=wrap;html=1;rotation=90;" vertex="1" parent="YxBRKFH5x1Np5lWWQdls-12">
          <mxGeometry x="-124.99999999999997" y="125" width="540" height="290" as="geometry" />
        </mxCell>
        <mxCell id="YxBRKFH5x1Np5lWWQdls-2" value="Início" style="ellipse;shape=doubleEllipse;whiteSpace=wrap;html=1;" vertex="1" parent="YxBRKFH5x1Np5lWWQdls-12">
          <mxGeometry x="80.00000000000003" y="55" width="130" height="60" as="geometry" />
        </mxCell>
        <mxCell id="YxBRKFH5x1Np5lWWQdls-10" value="" style="group" vertex="1" connectable="0" parent="YxBRKFH5x1Np5lWWQdls-12">
          <mxGeometry x="65.00000000000003" y="205" width="160" height="180" as="geometry" />
        </mxCell>
        <mxCell id="YxBRKFH5x1Np5lWWQdls-4" value="Cliente" style="shape=ext;double=1;rounded=1;whiteSpace=wrap;html=1;" vertex="1" parent="YxBRKFH5x1Np5lWWQdls-10">
          <mxGeometry width="160" height="20" as="geometry" />
        </mxCell>
        <mxCell id="YxBRKFH5x1Np5lWWQdls-5" value="Fornecedor" style="shape=ext;double=1;rounded=1;whiteSpace=wrap;html=1;" vertex="1" parent="YxBRKFH5x1Np5lWWQdls-10">
          <mxGeometry y="40" width="160" height="20" as="geometry" />
        </mxCell>
        <mxCell id="YxBRKFH5x1Np5lWWQdls-6" value="Matéria-Prima" style="shape=ext;double=1;rounded=1;whiteSpace=wrap;html=1;" vertex="1" parent="YxBRKFH5x1Np5lWWQdls-10">
          <mxGeometry y="80" width="160" height="20" as="geometry" />
        </mxCell>
        <mxCell id="YxBRKFH5x1Np5lWWQdls-7" value="Setores" style="shape=ext;double=1;rounded=1;whiteSpace=wrap;html=1;" vertex="1" parent="YxBRKFH5x1Np5lWWQdls-10">
          <mxGeometry y="120" width="160" height="20" as="geometry" />
        </mxCell>
        <mxCell id="YxBRKFH5x1Np5lWWQdls-8" value="Pedido" style="shape=ext;double=1;rounded=1;whiteSpace=wrap;html=1;" vertex="1" parent="YxBRKFH5x1Np5lWWQdls-10">
          <mxGeometry y="160" width="160" height="20" as="geometry" />
        </mxCell>
        <mxCell id="YxBRKFH5x1Np5lWWQdls-24" value="" style="group" vertex="1" connectable="0" parent="1">
          <mxGeometry x="430" y="40" width="290" height="540" as="geometry" />
        </mxCell>
        <mxCell id="YxBRKFH5x1Np5lWWQdls-11" value="" style="shape=ext;double=1;rounded=1;whiteSpace=wrap;html=1;rotation=90;" vertex="1" parent="YxBRKFH5x1Np5lWWQdls-24">
          <mxGeometry x="-125" y="125" width="540" height="290" as="geometry" />
        </mxCell>
        <mxCell id="YxBRKFH5x1Np5lWWQdls-13" value="Setores" style="ellipse;shape=doubleEllipse;whiteSpace=wrap;html=1;" vertex="1" parent="YxBRKFH5x1Np5lWWQdls-24">
          <mxGeometry x="80" y="55" width="130" height="60" as="geometry" />
        </mxCell>
        <mxCell id="YxBRKFH5x1Np5lWWQdls-14" value="" style="group" vertex="1" connectable="0" parent="YxBRKFH5x1Np5lWWQdls-24">
          <mxGeometry x="75" y="205" width="160" height="180" as="geometry" />
        </mxCell>
        <mxCell id="YxBRKFH5x1Np5lWWQdls-15" value="Costura" style="shape=ext;double=1;rounded=1;whiteSpace=wrap;html=1;" vertex="1" parent="YxBRKFH5x1Np5lWWQdls-14">
          <mxGeometry width="160" height="20" as="geometry" />
        </mxCell>
        <mxCell id="YxBRKFH5x1Np5lWWQdls-16" value="Acabamento" style="shape=ext;double=1;rounded=1;whiteSpace=wrap;html=1;" vertex="1" parent="YxBRKFH5x1Np5lWWQdls-14">
          <mxGeometry y="40" width="160" height="20" as="geometry" />
        </mxCell>
        <mxCell id="YxBRKFH5x1Np5lWWQdls-17" value="Estoque" style="shape=ext;double=1;rounded=1;whiteSpace=wrap;html=1;" vertex="1" parent="YxBRKFH5x1Np5lWWQdls-14">
          <mxGeometry y="80" width="160" height="20" as="geometry" />
        </mxCell>
        <mxCell id="YxBRKFH5x1Np5lWWQdls-18" value="Silk/Bordado" style="shape=ext;double=1;rounded=1;whiteSpace=wrap;html=1;" vertex="1" parent="YxBRKFH5x1Np5lWWQdls-14">
          <mxGeometry y="120" width="160" height="20" as="geometry" />
        </mxCell>
        <mxCell id="YxBRKFH5x1Np5lWWQdls-19" value="Corte" style="shape=ext;double=1;rounded=1;whiteSpace=wrap;html=1;" vertex="1" parent="YxBRKFH5x1Np5lWWQdls-14">
          <mxGeometry y="160" width="160" height="20" as="geometry" />
        </mxCell>
        <mxCell id="YxBRKFH5x1Np5lWWQdls-23" value="" style="group" vertex="1" connectable="0" parent="YxBRKFH5x1Np5lWWQdls-24">
          <mxGeometry x="15" y="445" width="260" height="30" as="geometry" />
        </mxCell>
        <mxCell id="YxBRKFH5x1Np5lWWQdls-3" value="voltar&amp;nbsp;" style="shape=ext;double=1;rounded=1;whiteSpace=wrap;html=1;" vertex="1" parent="YxBRKFH5x1Np5lWWQdls-23">
          <mxGeometry width="80" height="30" as="geometry" />
        </mxCell>
        <mxCell id="YxBRKFH5x1Np5lWWQdls-20" value="continuar" style="shape=ext;double=1;rounded=1;whiteSpace=wrap;html=1;" vertex="1" parent="YxBRKFH5x1Np5lWWQdls-23">
          <mxGeometry x="180" width="80" height="30" as="geometry" />
        </mxCell>
        <mxCell id="YxBRKFH5x1Np5lWWQdls-66" value="" style="group" vertex="1" connectable="0" parent="1">
          <mxGeometry x="1750" y="600" width="160" height="180" as="geometry" />
        </mxCell>
        <mxCell id="YxBRKFH5x1Np5lWWQdls-67" value="Cadastrar" style="shape=ext;double=1;rounded=1;whiteSpace=wrap;html=1;" vertex="1" parent="YxBRKFH5x1Np5lWWQdls-66">
          <mxGeometry width="160" height="20" as="geometry" />
        </mxCell>
        <mxCell id="YxBRKFH5x1Np5lWWQdls-68" value="Acabamento" style="shape=ext;double=1;rounded=1;whiteSpace=wrap;html=1;" vertex="1" parent="YxBRKFH5x1Np5lWWQdls-66">
          <mxGeometry y="40" width="160" height="20" as="geometry" />
        </mxCell>
        <mxCell id="YxBRKFH5x1Np5lWWQdls-69" value="Estoque" style="shape=ext;double=1;rounded=1;whiteSpace=wrap;html=1;" vertex="1" parent="YxBRKFH5x1Np5lWWQdls-66">
          <mxGeometry y="80" width="160" height="20" as="geometry" />
        </mxCell>
        <mxCell id="YxBRKFH5x1Np5lWWQdls-70" value="Silk/Bordado" style="shape=ext;double=1;rounded=1;whiteSpace=wrap;html=1;" vertex="1" parent="YxBRKFH5x1Np5lWWQdls-66">
          <mxGeometry y="120" width="160" height="20" as="geometry" />
        </mxCell>
        <mxCell id="YxBRKFH5x1Np5lWWQdls-71" value="Corte" style="shape=ext;double=1;rounded=1;whiteSpace=wrap;html=1;" vertex="1" parent="YxBRKFH5x1Np5lWWQdls-66">
          <mxGeometry y="160" width="160" height="20" as="geometry" />
        </mxCell>
        <mxCell id="YxBRKFH5x1Np5lWWQdls-119" value="" style="group" vertex="1" connectable="0" parent="1">
          <mxGeometry x="1420" y="270" width="290" height="540" as="geometry" />
        </mxCell>
        <mxCell id="YxBRKFH5x1Np5lWWQdls-25" value="" style="shape=ext;double=1;rounded=1;whiteSpace=wrap;html=1;rotation=90;" vertex="1" parent="YxBRKFH5x1Np5lWWQdls-119">
          <mxGeometry x="-124.99999999999997" y="125" width="540" height="290" as="geometry" />
        </mxCell>
        <mxCell id="YxBRKFH5x1Np5lWWQdls-34" value="" style="group" vertex="1" connectable="0" parent="YxBRKFH5x1Np5lWWQdls-119">
          <mxGeometry x="30.00000000000003" y="205" width="240" height="100" as="geometry" />
        </mxCell>
        <mxCell id="YxBRKFH5x1Np5lWWQdls-26" value="" style="shape=ext;double=1;rounded=1;whiteSpace=wrap;html=1;" vertex="1" parent="YxBRKFH5x1Np5lWWQdls-34">
          <mxGeometry x="70" width="170" height="20" as="geometry" />
        </mxCell>
        <mxCell id="YxBRKFH5x1Np5lWWQdls-27" value="&lt;font style=&quot;font-size: 14px;&quot;&gt;Nome&lt;/font&gt;" style="text;strokeColor=none;fillColor=none;html=1;fontSize=24;fontStyle=1;verticalAlign=middle;align=center;" vertex="1" parent="YxBRKFH5x1Np5lWWQdls-34">
          <mxGeometry x="10" width="70" height="20" as="geometry" />
        </mxCell>
        <mxCell id="YxBRKFH5x1Np5lWWQdls-28" value="" style="shape=ext;double=1;rounded=1;whiteSpace=wrap;html=1;" vertex="1" parent="YxBRKFH5x1Np5lWWQdls-34">
          <mxGeometry x="70" y="40" width="170" height="20" as="geometry" />
        </mxCell>
        <mxCell id="YxBRKFH5x1Np5lWWQdls-30" value="" style="shape=ext;double=1;rounded=1;whiteSpace=wrap;html=1;" vertex="1" parent="YxBRKFH5x1Np5lWWQdls-34">
          <mxGeometry x="70" y="80" width="170" height="20" as="geometry" />
        </mxCell>
        <mxCell id="YxBRKFH5x1Np5lWWQdls-31" value="&lt;font style=&quot;font-size: 14px;&quot;&gt;Número&lt;/font&gt;" style="text;strokeColor=none;fillColor=none;html=1;fontSize=24;fontStyle=1;verticalAlign=middle;align=center;" vertex="1" parent="YxBRKFH5x1Np5lWWQdls-34">
          <mxGeometry x="4" y="40" width="70" height="20" as="geometry" />
        </mxCell>
        <mxCell id="YxBRKFH5x1Np5lWWQdls-32" style="edgeStyle=orthogonalEdgeStyle;rounded=0;orthogonalLoop=1;jettySize=auto;html=1;exitX=0.5;exitY=1;exitDx=0;exitDy=0;" edge="1" parent="YxBRKFH5x1Np5lWWQdls-34" source="YxBRKFH5x1Np5lWWQdls-31" target="YxBRKFH5x1Np5lWWQdls-31">
          <mxGeometry relative="1" as="geometry" />
        </mxCell>
        <mxCell id="YxBRKFH5x1Np5lWWQdls-33" value="&lt;font style=&quot;font-size: 14px;&quot;&gt;Telefone&lt;/font&gt;" style="text;strokeColor=none;fillColor=none;html=1;fontSize=24;fontStyle=1;verticalAlign=middle;align=center;" vertex="1" parent="YxBRKFH5x1Np5lWWQdls-34">
          <mxGeometry y="80" width="70" height="20" as="geometry" />
        </mxCell>
        <mxCell id="YxBRKFH5x1Np5lWWQdls-35" value="" style="group" vertex="1" connectable="0" parent="YxBRKFH5x1Np5lWWQdls-119">
          <mxGeometry x="15.000000000000028" y="415" width="260" height="30" as="geometry" />
        </mxCell>
        <mxCell id="YxBRKFH5x1Np5lWWQdls-36" value="voltar&amp;nbsp;" style="shape=ext;double=1;rounded=1;whiteSpace=wrap;html=1;" vertex="1" parent="YxBRKFH5x1Np5lWWQdls-35">
          <mxGeometry width="80" height="30" as="geometry" />
        </mxCell>
        <mxCell id="YxBRKFH5x1Np5lWWQdls-37" value="continuar" style="shape=ext;double=1;rounded=1;whiteSpace=wrap;html=1;" vertex="1" parent="YxBRKFH5x1Np5lWWQdls-35">
          <mxGeometry x="90" width="80" height="30" as="geometry" />
        </mxCell>
        <mxCell id="YxBRKFH5x1Np5lWWQdls-38" value="Atualizar" style="shape=ext;double=1;rounded=1;whiteSpace=wrap;html=1;" vertex="1" parent="YxBRKFH5x1Np5lWWQdls-35">
          <mxGeometry x="180" width="80" height="30" as="geometry" />
        </mxCell>
        <mxCell id="YxBRKFH5x1Np5lWWQdls-65" value="Costura" style="ellipse;shape=doubleEllipse;whiteSpace=wrap;html=1;" vertex="1" parent="YxBRKFH5x1Np5lWWQdls-119">
          <mxGeometry x="85.00000000000003" y="65" width="130" height="60" as="geometry" />
        </mxCell>
        <mxCell id="YxBRKFH5x1Np5lWWQdls-120" value="" style="group" vertex="1" connectable="0" parent="1">
          <mxGeometry x="40" y="600" width="290" height="540" as="geometry" />
        </mxCell>
        <mxCell id="YxBRKFH5x1Np5lWWQdls-72" value="" style="shape=ext;double=1;rounded=1;whiteSpace=wrap;html=1;rotation=90;" vertex="1" parent="YxBRKFH5x1Np5lWWQdls-120">
          <mxGeometry x="-125" y="125" width="540" height="290" as="geometry" />
        </mxCell>
        <mxCell id="YxBRKFH5x1Np5lWWQdls-73" value="Costura" style="ellipse;shape=doubleEllipse;whiteSpace=wrap;html=1;" vertex="1" parent="YxBRKFH5x1Np5lWWQdls-120">
          <mxGeometry x="90" y="65" width="130" height="60" as="geometry" />
        </mxCell>
        <mxCell id="YxBRKFH5x1Np5lWWQdls-114" value="" style="group" vertex="1" connectable="0" parent="YxBRKFH5x1Np5lWWQdls-120">
          <mxGeometry x="65" y="195" width="180" height="220" as="geometry" />
        </mxCell>
        <mxCell id="YxBRKFH5x1Np5lWWQdls-29" value="Buscar" style="shape=ext;double=1;rounded=1;whiteSpace=wrap;html=1;" vertex="1" parent="YxBRKFH5x1Np5lWWQdls-114">
          <mxGeometry x="5" width="170" height="20" as="geometry" />
        </mxCell>
        <mxCell id="YxBRKFH5x1Np5lWWQdls-87" value="" style="shape=table;startSize=0;container=1;collapsible=0;childLayout=tableLayout;fontSize=16;" vertex="1" parent="YxBRKFH5x1Np5lWWQdls-114">
          <mxGeometry y="40" width="180" height="180" as="geometry" />
        </mxCell>
        <mxCell id="YxBRKFH5x1Np5lWWQdls-88" value="" style="shape=tableRow;horizontal=0;startSize=0;swimlaneHead=0;swimlaneBody=0;strokeColor=inherit;top=0;left=0;bottom=0;right=0;collapsible=0;dropTarget=0;fillColor=none;points=[[0,0.5],[1,0.5]];portConstraint=eastwest;fontSize=16;" vertex="1" parent="YxBRKFH5x1Np5lWWQdls-87">
          <mxGeometry width="180" height="20" as="geometry" />
        </mxCell>
        <mxCell id="YxBRKFH5x1Np5lWWQdls-89" value="&lt;font style=&quot;font-size: 12px;&quot;&gt;cod&lt;/font&gt;" style="shape=partialRectangle;html=1;whiteSpace=wrap;connectable=0;strokeColor=inherit;overflow=hidden;fillColor=none;top=0;left=0;bottom=0;right=0;pointerEvents=1;fontSize=16;" vertex="1" parent="YxBRKFH5x1Np5lWWQdls-88">
          <mxGeometry width="60" height="20" as="geometry">
            <mxRectangle width="60" height="20" as="alternateBounds" />
          </mxGeometry>
        </mxCell>
        <mxCell id="YxBRKFH5x1Np5lWWQdls-90" value="&lt;font style=&quot;font-size: 12px;&quot;&gt;Nome&lt;/font&gt;" style="shape=partialRectangle;html=1;whiteSpace=wrap;connectable=0;strokeColor=inherit;overflow=hidden;fillColor=none;top=0;left=0;bottom=0;right=0;pointerEvents=1;fontSize=16;" vertex="1" parent="YxBRKFH5x1Np5lWWQdls-88">
          <mxGeometry x="60" width="60" height="20" as="geometry">
            <mxRectangle width="60" height="20" as="alternateBounds" />
          </mxGeometry>
        </mxCell>
        <mxCell id="YxBRKFH5x1Np5lWWQdls-91" value="&lt;font style=&quot;font-size: 12px;&quot;&gt;Numero&lt;/font&gt;" style="shape=partialRectangle;html=1;whiteSpace=wrap;connectable=0;strokeColor=inherit;overflow=hidden;fillColor=none;top=0;left=0;bottom=0;right=0;pointerEvents=1;fontSize=16;" vertex="1" parent="YxBRKFH5x1Np5lWWQdls-88">
          <mxGeometry x="120" width="60" height="20" as="geometry">
            <mxRectangle width="60" height="20" as="alternateBounds" />
          </mxGeometry>
        </mxCell>
        <mxCell id="YxBRKFH5x1Np5lWWQdls-92" value="" style="shape=tableRow;horizontal=0;startSize=0;swimlaneHead=0;swimlaneBody=0;strokeColor=inherit;top=0;left=0;bottom=0;right=0;collapsible=0;dropTarget=0;fillColor=none;points=[[0,0.5],[1,0.5]];portConstraint=eastwest;fontSize=16;" vertex="1" parent="YxBRKFH5x1Np5lWWQdls-87">
          <mxGeometry y="20" width="180" height="20" as="geometry" />
        </mxCell>
        <mxCell id="YxBRKFH5x1Np5lWWQdls-93" value="" style="shape=partialRectangle;html=1;whiteSpace=wrap;connectable=0;strokeColor=inherit;overflow=hidden;fillColor=none;top=0;left=0;bottom=0;right=0;pointerEvents=1;fontSize=16;" vertex="1" parent="YxBRKFH5x1Np5lWWQdls-92">
          <mxGeometry width="60" height="20" as="geometry">
            <mxRectangle width="60" height="20" as="alternateBounds" />
          </mxGeometry>
        </mxCell>
        <mxCell id="YxBRKFH5x1Np5lWWQdls-94" value="" style="shape=partialRectangle;html=1;whiteSpace=wrap;connectable=0;strokeColor=inherit;overflow=hidden;fillColor=none;top=0;left=0;bottom=0;right=0;pointerEvents=1;fontSize=16;" vertex="1" parent="YxBRKFH5x1Np5lWWQdls-92">
          <mxGeometry x="60" width="60" height="20" as="geometry">
            <mxRectangle width="60" height="20" as="alternateBounds" />
          </mxGeometry>
        </mxCell>
        <mxCell id="YxBRKFH5x1Np5lWWQdls-95" value="" style="shape=partialRectangle;html=1;whiteSpace=wrap;connectable=0;strokeColor=inherit;overflow=hidden;fillColor=none;top=0;left=0;bottom=0;right=0;pointerEvents=1;fontSize=16;" vertex="1" parent="YxBRKFH5x1Np5lWWQdls-92">
          <mxGeometry x="120" width="60" height="20" as="geometry">
            <mxRectangle width="60" height="20" as="alternateBounds" />
          </mxGeometry>
        </mxCell>
        <mxCell id="YxBRKFH5x1Np5lWWQdls-96" value="" style="shape=tableRow;horizontal=0;startSize=0;swimlaneHead=0;swimlaneBody=0;strokeColor=inherit;top=0;left=0;bottom=0;right=0;collapsible=0;dropTarget=0;fillColor=none;points=[[0,0.5],[1,0.5]];portConstraint=eastwest;fontSize=16;" vertex="1" parent="YxBRKFH5x1Np5lWWQdls-87">
          <mxGeometry y="40" width="180" height="20" as="geometry" />
        </mxCell>
        <mxCell id="YxBRKFH5x1Np5lWWQdls-97" value="" style="shape=partialRectangle;html=1;whiteSpace=wrap;connectable=0;strokeColor=inherit;overflow=hidden;fillColor=none;top=0;left=0;bottom=0;right=0;pointerEvents=1;fontSize=16;" vertex="1" parent="YxBRKFH5x1Np5lWWQdls-96">
          <mxGeometry width="60" height="20" as="geometry">
            <mxRectangle width="60" height="20" as="alternateBounds" />
          </mxGeometry>
        </mxCell>
        <mxCell id="YxBRKFH5x1Np5lWWQdls-98" value="" style="shape=partialRectangle;html=1;whiteSpace=wrap;connectable=0;strokeColor=inherit;overflow=hidden;fillColor=none;top=0;left=0;bottom=0;right=0;pointerEvents=1;fontSize=16;" vertex="1" parent="YxBRKFH5x1Np5lWWQdls-96">
          <mxGeometry x="60" width="60" height="20" as="geometry">
            <mxRectangle width="60" height="20" as="alternateBounds" />
          </mxGeometry>
        </mxCell>
        <mxCell id="YxBRKFH5x1Np5lWWQdls-99" value="" style="shape=partialRectangle;html=1;whiteSpace=wrap;connectable=0;strokeColor=inherit;overflow=hidden;fillColor=none;top=0;left=0;bottom=0;right=0;pointerEvents=1;fontSize=16;" vertex="1" parent="YxBRKFH5x1Np5lWWQdls-96">
          <mxGeometry x="120" width="60" height="20" as="geometry">
            <mxRectangle width="60" height="20" as="alternateBounds" />
          </mxGeometry>
        </mxCell>
        <mxCell id="YxBRKFH5x1Np5lWWQdls-79" value="" style="shape=tableRow;horizontal=0;startSize=0;swimlaneHead=0;swimlaneBody=0;strokeColor=inherit;top=0;left=0;bottom=0;right=0;collapsible=0;dropTarget=0;fillColor=none;points=[[0,0.5],[1,0.5]];portConstraint=eastwest;fontSize=16;" vertex="1" parent="YxBRKFH5x1Np5lWWQdls-87">
          <mxGeometry y="60" width="180" height="20" as="geometry" />
        </mxCell>
        <mxCell id="YxBRKFH5x1Np5lWWQdls-80" value="" style="shape=partialRectangle;html=1;whiteSpace=wrap;connectable=0;strokeColor=inherit;overflow=hidden;fillColor=none;top=0;left=0;bottom=0;right=0;pointerEvents=1;fontSize=16;" vertex="1" parent="YxBRKFH5x1Np5lWWQdls-79">
          <mxGeometry width="60" height="20" as="geometry">
            <mxRectangle width="60" height="20" as="alternateBounds" />
          </mxGeometry>
        </mxCell>
        <mxCell id="YxBRKFH5x1Np5lWWQdls-81" value="" style="shape=partialRectangle;html=1;whiteSpace=wrap;connectable=0;strokeColor=inherit;overflow=hidden;fillColor=none;top=0;left=0;bottom=0;right=0;pointerEvents=1;fontSize=16;" vertex="1" parent="YxBRKFH5x1Np5lWWQdls-79">
          <mxGeometry x="60" width="60" height="20" as="geometry">
            <mxRectangle width="60" height="20" as="alternateBounds" />
          </mxGeometry>
        </mxCell>
        <mxCell id="YxBRKFH5x1Np5lWWQdls-82" value="" style="shape=partialRectangle;html=1;whiteSpace=wrap;connectable=0;strokeColor=inherit;overflow=hidden;fillColor=none;top=0;left=0;bottom=0;right=0;pointerEvents=1;fontSize=16;" vertex="1" parent="YxBRKFH5x1Np5lWWQdls-79">
          <mxGeometry x="120" width="60" height="20" as="geometry">
            <mxRectangle width="60" height="20" as="alternateBounds" />
          </mxGeometry>
        </mxCell>
        <mxCell id="YxBRKFH5x1Np5lWWQdls-75" value="" style="shape=tableRow;horizontal=0;startSize=0;swimlaneHead=0;swimlaneBody=0;strokeColor=inherit;top=0;left=0;bottom=0;right=0;collapsible=0;dropTarget=0;fillColor=none;points=[[0,0.5],[1,0.5]];portConstraint=eastwest;fontSize=16;" vertex="1" parent="YxBRKFH5x1Np5lWWQdls-87">
          <mxGeometry y="80" width="180" height="20" as="geometry" />
        </mxCell>
        <mxCell id="YxBRKFH5x1Np5lWWQdls-76" value="" style="shape=partialRectangle;html=1;whiteSpace=wrap;connectable=0;strokeColor=inherit;overflow=hidden;fillColor=none;top=0;left=0;bottom=0;right=0;pointerEvents=1;fontSize=16;" vertex="1" parent="YxBRKFH5x1Np5lWWQdls-75">
          <mxGeometry width="60" height="20" as="geometry">
            <mxRectangle width="60" height="20" as="alternateBounds" />
          </mxGeometry>
        </mxCell>
        <mxCell id="YxBRKFH5x1Np5lWWQdls-77" value="" style="shape=partialRectangle;html=1;whiteSpace=wrap;connectable=0;strokeColor=inherit;overflow=hidden;fillColor=none;top=0;left=0;bottom=0;right=0;pointerEvents=1;fontSize=16;" vertex="1" parent="YxBRKFH5x1Np5lWWQdls-75">
          <mxGeometry x="60" width="60" height="20" as="geometry">
            <mxRectangle width="60" height="20" as="alternateBounds" />
          </mxGeometry>
        </mxCell>
        <mxCell id="YxBRKFH5x1Np5lWWQdls-78" value="" style="shape=partialRectangle;html=1;whiteSpace=wrap;connectable=0;strokeColor=inherit;overflow=hidden;fillColor=none;top=0;left=0;bottom=0;right=0;pointerEvents=1;fontSize=16;" vertex="1" parent="YxBRKFH5x1Np5lWWQdls-75">
          <mxGeometry x="120" width="60" height="20" as="geometry">
            <mxRectangle width="60" height="20" as="alternateBounds" />
          </mxGeometry>
        </mxCell>
        <mxCell id="YxBRKFH5x1Np5lWWQdls-83" value="" style="shape=tableRow;horizontal=0;startSize=0;swimlaneHead=0;swimlaneBody=0;strokeColor=inherit;top=0;left=0;bottom=0;right=0;collapsible=0;dropTarget=0;fillColor=none;points=[[0,0.5],[1,0.5]];portConstraint=eastwest;fontSize=16;" vertex="1" parent="YxBRKFH5x1Np5lWWQdls-87">
          <mxGeometry y="100" width="180" height="20" as="geometry" />
        </mxCell>
        <mxCell id="YxBRKFH5x1Np5lWWQdls-84" value="" style="shape=partialRectangle;html=1;whiteSpace=wrap;connectable=0;strokeColor=inherit;overflow=hidden;fillColor=none;top=0;left=0;bottom=0;right=0;pointerEvents=1;fontSize=16;" vertex="1" parent="YxBRKFH5x1Np5lWWQdls-83">
          <mxGeometry width="60" height="20" as="geometry">
            <mxRectangle width="60" height="20" as="alternateBounds" />
          </mxGeometry>
        </mxCell>
        <mxCell id="YxBRKFH5x1Np5lWWQdls-85" value="" style="shape=partialRectangle;html=1;whiteSpace=wrap;connectable=0;strokeColor=inherit;overflow=hidden;fillColor=none;top=0;left=0;bottom=0;right=0;pointerEvents=1;fontSize=16;" vertex="1" parent="YxBRKFH5x1Np5lWWQdls-83">
          <mxGeometry x="60" width="60" height="20" as="geometry">
            <mxRectangle width="60" height="20" as="alternateBounds" />
          </mxGeometry>
        </mxCell>
        <mxCell id="YxBRKFH5x1Np5lWWQdls-86" value="" style="shape=partialRectangle;html=1;whiteSpace=wrap;connectable=0;strokeColor=inherit;overflow=hidden;fillColor=none;top=0;left=0;bottom=0;right=0;pointerEvents=1;fontSize=16;" vertex="1" parent="YxBRKFH5x1Np5lWWQdls-83">
          <mxGeometry x="120" width="60" height="20" as="geometry">
            <mxRectangle width="60" height="20" as="alternateBounds" />
          </mxGeometry>
        </mxCell>
        <mxCell id="YxBRKFH5x1Np5lWWQdls-105" value="" style="shape=tableRow;horizontal=0;startSize=0;swimlaneHead=0;swimlaneBody=0;strokeColor=inherit;top=0;left=0;bottom=0;right=0;collapsible=0;dropTarget=0;fillColor=none;points=[[0,0.5],[1,0.5]];portConstraint=eastwest;fontSize=16;" vertex="1" parent="YxBRKFH5x1Np5lWWQdls-87">
          <mxGeometry y="120" width="180" height="20" as="geometry" />
        </mxCell>
        <mxCell id="YxBRKFH5x1Np5lWWQdls-106" value="" style="shape=partialRectangle;html=1;whiteSpace=wrap;connectable=0;strokeColor=inherit;overflow=hidden;fillColor=none;top=0;left=0;bottom=0;right=0;pointerEvents=1;fontSize=16;" vertex="1" parent="YxBRKFH5x1Np5lWWQdls-105">
          <mxGeometry width="60" height="20" as="geometry">
            <mxRectangle width="60" height="20" as="alternateBounds" />
          </mxGeometry>
        </mxCell>
        <mxCell id="YxBRKFH5x1Np5lWWQdls-107" value="" style="shape=partialRectangle;html=1;whiteSpace=wrap;connectable=0;strokeColor=inherit;overflow=hidden;fillColor=none;top=0;left=0;bottom=0;right=0;pointerEvents=1;fontSize=16;" vertex="1" parent="YxBRKFH5x1Np5lWWQdls-105">
          <mxGeometry x="60" width="60" height="20" as="geometry">
            <mxRectangle width="60" height="20" as="alternateBounds" />
          </mxGeometry>
        </mxCell>
        <mxCell id="YxBRKFH5x1Np5lWWQdls-108" value="" style="shape=partialRectangle;html=1;whiteSpace=wrap;connectable=0;strokeColor=inherit;overflow=hidden;fillColor=none;top=0;left=0;bottom=0;right=0;pointerEvents=1;fontSize=16;" vertex="1" parent="YxBRKFH5x1Np5lWWQdls-105">
          <mxGeometry x="120" width="60" height="20" as="geometry">
            <mxRectangle width="60" height="20" as="alternateBounds" />
          </mxGeometry>
        </mxCell>
        <mxCell id="YxBRKFH5x1Np5lWWQdls-101" value="" style="shape=tableRow;horizontal=0;startSize=0;swimlaneHead=0;swimlaneBody=0;strokeColor=inherit;top=0;left=0;bottom=0;right=0;collapsible=0;dropTarget=0;fillColor=none;points=[[0,0.5],[1,0.5]];portConstraint=eastwest;fontSize=16;" vertex="1" parent="YxBRKFH5x1Np5lWWQdls-87">
          <mxGeometry y="140" width="180" height="20" as="geometry" />
        </mxCell>
        <mxCell id="YxBRKFH5x1Np5lWWQdls-102" value="" style="shape=partialRectangle;html=1;whiteSpace=wrap;connectable=0;strokeColor=inherit;overflow=hidden;fillColor=none;top=0;left=0;bottom=0;right=0;pointerEvents=1;fontSize=16;" vertex="1" parent="YxBRKFH5x1Np5lWWQdls-101">
          <mxGeometry width="60" height="20" as="geometry">
            <mxRectangle width="60" height="20" as="alternateBounds" />
          </mxGeometry>
        </mxCell>
        <mxCell id="YxBRKFH5x1Np5lWWQdls-103" value="" style="shape=partialRectangle;html=1;whiteSpace=wrap;connectable=0;strokeColor=inherit;overflow=hidden;fillColor=none;top=0;left=0;bottom=0;right=0;pointerEvents=1;fontSize=16;" vertex="1" parent="YxBRKFH5x1Np5lWWQdls-101">
          <mxGeometry x="60" width="60" height="20" as="geometry">
            <mxRectangle width="60" height="20" as="alternateBounds" />
          </mxGeometry>
        </mxCell>
        <mxCell id="YxBRKFH5x1Np5lWWQdls-104" value="" style="shape=partialRectangle;html=1;whiteSpace=wrap;connectable=0;strokeColor=inherit;overflow=hidden;fillColor=none;top=0;left=0;bottom=0;right=0;pointerEvents=1;fontSize=16;" vertex="1" parent="YxBRKFH5x1Np5lWWQdls-101">
          <mxGeometry x="120" width="60" height="20" as="geometry">
            <mxRectangle width="60" height="20" as="alternateBounds" />
          </mxGeometry>
        </mxCell>
        <mxCell id="YxBRKFH5x1Np5lWWQdls-109" value="" style="shape=tableRow;horizontal=0;startSize=0;swimlaneHead=0;swimlaneBody=0;strokeColor=inherit;top=0;left=0;bottom=0;right=0;collapsible=0;dropTarget=0;fillColor=none;points=[[0,0.5],[1,0.5]];portConstraint=eastwest;fontSize=16;" vertex="1" parent="YxBRKFH5x1Np5lWWQdls-87">
          <mxGeometry y="160" width="180" height="20" as="geometry" />
        </mxCell>
        <mxCell id="YxBRKFH5x1Np5lWWQdls-110" value="" style="shape=partialRectangle;html=1;whiteSpace=wrap;connectable=0;strokeColor=inherit;overflow=hidden;fillColor=none;top=0;left=0;bottom=0;right=0;pointerEvents=1;fontSize=16;" vertex="1" parent="YxBRKFH5x1Np5lWWQdls-109">
          <mxGeometry width="60" height="20" as="geometry">
            <mxRectangle width="60" height="20" as="alternateBounds" />
          </mxGeometry>
        </mxCell>
        <mxCell id="YxBRKFH5x1Np5lWWQdls-111" value="" style="shape=partialRectangle;html=1;whiteSpace=wrap;connectable=0;strokeColor=inherit;overflow=hidden;fillColor=none;top=0;left=0;bottom=0;right=0;pointerEvents=1;fontSize=16;" vertex="1" parent="YxBRKFH5x1Np5lWWQdls-109">
          <mxGeometry x="60" width="60" height="20" as="geometry">
            <mxRectangle width="60" height="20" as="alternateBounds" />
          </mxGeometry>
        </mxCell>
        <mxCell id="YxBRKFH5x1Np5lWWQdls-112" value="" style="shape=partialRectangle;html=1;whiteSpace=wrap;connectable=0;strokeColor=inherit;overflow=hidden;fillColor=none;top=0;left=0;bottom=0;right=0;pointerEvents=1;fontSize=16;" vertex="1" parent="YxBRKFH5x1Np5lWWQdls-109">
          <mxGeometry x="120" width="60" height="20" as="geometry">
            <mxRectangle width="60" height="20" as="alternateBounds" />
          </mxGeometry>
        </mxCell>
        <mxCell id="YxBRKFH5x1Np5lWWQdls-115" value="" style="group" vertex="1" connectable="0" parent="YxBRKFH5x1Np5lWWQdls-120">
          <mxGeometry x="20" y="455" width="260" height="30" as="geometry" />
        </mxCell>
        <mxCell id="YxBRKFH5x1Np5lWWQdls-116" value="voltar&amp;nbsp;" style="shape=ext;double=1;rounded=1;whiteSpace=wrap;html=1;" vertex="1" parent="YxBRKFH5x1Np5lWWQdls-115">
          <mxGeometry width="80" height="30" as="geometry" />
        </mxCell>
        <mxCell id="YxBRKFH5x1Np5lWWQdls-117" value="continuar" style="shape=ext;double=1;rounded=1;whiteSpace=wrap;html=1;" vertex="1" parent="YxBRKFH5x1Np5lWWQdls-115">
          <mxGeometry x="90" width="80" height="30" as="geometry" />
        </mxCell>
        <mxCell id="YxBRKFH5x1Np5lWWQdls-118" value="Cadastrar" style="shape=ext;double=1;rounded=1;whiteSpace=wrap;html=1;" vertex="1" parent="YxBRKFH5x1Np5lWWQdls-115">
          <mxGeometry x="180" width="80" height="30" as="geometry" />
        </mxCell>
        <mxCell id="YxBRKFH5x1Np5lWWQdls-121" value="" style="group" vertex="1" connectable="0" parent="1">
          <mxGeometry x="440" y="600" width="290" height="540" as="geometry" />
        </mxCell>
        <mxCell id="YxBRKFH5x1Np5lWWQdls-122" value="" style="shape=ext;double=1;rounded=1;whiteSpace=wrap;html=1;rotation=90;" vertex="1" parent="YxBRKFH5x1Np5lWWQdls-121">
          <mxGeometry x="-125" y="125" width="540" height="290" as="geometry" />
        </mxCell>
        <mxCell id="YxBRKFH5x1Np5lWWQdls-123" value="Costura" style="ellipse;shape=doubleEllipse;whiteSpace=wrap;html=1;" vertex="1" parent="YxBRKFH5x1Np5lWWQdls-121">
          <mxGeometry x="90" y="65" width="130" height="60" as="geometry" />
        </mxCell>
        <mxCell id="YxBRKFH5x1Np5lWWQdls-124" value="" style="group" vertex="1" connectable="0" parent="YxBRKFH5x1Np5lWWQdls-121">
          <mxGeometry x="65" y="195" width="210" height="220" as="geometry" />
        </mxCell>
        <mxCell id="YxBRKFH5x1Np5lWWQdls-125" value="Buscar" style="shape=ext;double=1;rounded=1;whiteSpace=wrap;html=1;" vertex="1" parent="YxBRKFH5x1Np5lWWQdls-124">
          <mxGeometry x="5" width="170" height="20" as="geometry" />
        </mxCell>
        <mxCell id="YxBRKFH5x1Np5lWWQdls-126" value="" style="shape=table;startSize=0;container=1;collapsible=0;childLayout=tableLayout;fontSize=16;" vertex="1" parent="YxBRKFH5x1Np5lWWQdls-124">
          <mxGeometry y="40" width="180" height="180" as="geometry" />
        </mxCell>
        <mxCell id="YxBRKFH5x1Np5lWWQdls-127" value="" style="shape=tableRow;horizontal=0;startSize=0;swimlaneHead=0;swimlaneBody=0;strokeColor=inherit;top=0;left=0;bottom=0;right=0;collapsible=0;dropTarget=0;fillColor=none;points=[[0,0.5],[1,0.5]];portConstraint=eastwest;fontSize=16;" vertex="1" parent="YxBRKFH5x1Np5lWWQdls-126">
          <mxGeometry width="180" height="20" as="geometry" />
        </mxCell>
        <mxCell id="YxBRKFH5x1Np5lWWQdls-128" value="&lt;font style=&quot;font-size: 12px;&quot;&gt;cod&lt;/font&gt;" style="shape=partialRectangle;html=1;whiteSpace=wrap;connectable=0;strokeColor=inherit;overflow=hidden;fillColor=none;top=0;left=0;bottom=0;right=0;pointerEvents=1;fontSize=16;" vertex="1" parent="YxBRKFH5x1Np5lWWQdls-127">
          <mxGeometry width="60" height="20" as="geometry">
            <mxRectangle width="60" height="20" as="alternateBounds" />
          </mxGeometry>
        </mxCell>
        <mxCell id="YxBRKFH5x1Np5lWWQdls-129" value="&lt;font style=&quot;font-size: 12px;&quot;&gt;Nome&lt;/font&gt;" style="shape=partialRectangle;html=1;whiteSpace=wrap;connectable=0;strokeColor=inherit;overflow=hidden;fillColor=none;top=0;left=0;bottom=0;right=0;pointerEvents=1;fontSize=16;" vertex="1" parent="YxBRKFH5x1Np5lWWQdls-127">
          <mxGeometry x="60" width="60" height="20" as="geometry">
            <mxRectangle width="60" height="20" as="alternateBounds" />
          </mxGeometry>
        </mxCell>
        <mxCell id="YxBRKFH5x1Np5lWWQdls-130" value="&lt;font style=&quot;font-size: 12px;&quot;&gt;Numero&lt;/font&gt;" style="shape=partialRectangle;html=1;whiteSpace=wrap;connectable=0;strokeColor=inherit;overflow=hidden;fillColor=none;top=0;left=0;bottom=0;right=0;pointerEvents=1;fontSize=16;" vertex="1" parent="YxBRKFH5x1Np5lWWQdls-127">
          <mxGeometry x="120" width="60" height="20" as="geometry">
            <mxRectangle width="60" height="20" as="alternateBounds" />
          </mxGeometry>
        </mxCell>
        <mxCell id="YxBRKFH5x1Np5lWWQdls-131" value="" style="shape=tableRow;horizontal=0;startSize=0;swimlaneHead=0;swimlaneBody=0;strokeColor=inherit;top=0;left=0;bottom=0;right=0;collapsible=0;dropTarget=0;fillColor=none;points=[[0,0.5],[1,0.5]];portConstraint=eastwest;fontSize=16;" vertex="1" parent="YxBRKFH5x1Np5lWWQdls-126">
          <mxGeometry y="20" width="180" height="20" as="geometry" />
        </mxCell>
        <mxCell id="YxBRKFH5x1Np5lWWQdls-132" value="" style="shape=partialRectangle;html=1;whiteSpace=wrap;connectable=0;strokeColor=inherit;overflow=hidden;fillColor=none;top=0;left=0;bottom=0;right=0;pointerEvents=1;fontSize=16;" vertex="1" parent="YxBRKFH5x1Np5lWWQdls-131">
          <mxGeometry width="60" height="20" as="geometry">
            <mxRectangle width="60" height="20" as="alternateBounds" />
          </mxGeometry>
        </mxCell>
        <mxCell id="YxBRKFH5x1Np5lWWQdls-133" value="" style="shape=partialRectangle;html=1;whiteSpace=wrap;connectable=0;strokeColor=inherit;overflow=hidden;fillColor=none;top=0;left=0;bottom=0;right=0;pointerEvents=1;fontSize=16;" vertex="1" parent="YxBRKFH5x1Np5lWWQdls-131">
          <mxGeometry x="60" width="60" height="20" as="geometry">
            <mxRectangle width="60" height="20" as="alternateBounds" />
          </mxGeometry>
        </mxCell>
        <mxCell id="YxBRKFH5x1Np5lWWQdls-134" value="" style="shape=partialRectangle;html=1;whiteSpace=wrap;connectable=0;strokeColor=inherit;overflow=hidden;fillColor=none;top=0;left=0;bottom=0;right=0;pointerEvents=1;fontSize=16;" vertex="1" parent="YxBRKFH5x1Np5lWWQdls-131">
          <mxGeometry x="120" width="60" height="20" as="geometry">
            <mxRectangle width="60" height="20" as="alternateBounds" />
          </mxGeometry>
        </mxCell>
        <mxCell id="YxBRKFH5x1Np5lWWQdls-135" value="" style="shape=tableRow;horizontal=0;startSize=0;swimlaneHead=0;swimlaneBody=0;strokeColor=inherit;top=0;left=0;bottom=0;right=0;collapsible=0;dropTarget=0;fillColor=none;points=[[0,0.5],[1,0.5]];portConstraint=eastwest;fontSize=16;" vertex="1" parent="YxBRKFH5x1Np5lWWQdls-126">
          <mxGeometry y="40" width="180" height="20" as="geometry" />
        </mxCell>
        <mxCell id="YxBRKFH5x1Np5lWWQdls-136" value="" style="shape=partialRectangle;html=1;whiteSpace=wrap;connectable=0;strokeColor=inherit;overflow=hidden;fillColor=none;top=0;left=0;bottom=0;right=0;pointerEvents=1;fontSize=16;" vertex="1" parent="YxBRKFH5x1Np5lWWQdls-135">
          <mxGeometry width="60" height="20" as="geometry">
            <mxRectangle width="60" height="20" as="alternateBounds" />
          </mxGeometry>
        </mxCell>
        <mxCell id="YxBRKFH5x1Np5lWWQdls-137" value="" style="shape=partialRectangle;html=1;whiteSpace=wrap;connectable=0;strokeColor=inherit;overflow=hidden;fillColor=none;top=0;left=0;bottom=0;right=0;pointerEvents=1;fontSize=16;" vertex="1" parent="YxBRKFH5x1Np5lWWQdls-135">
          <mxGeometry x="60" width="60" height="20" as="geometry">
            <mxRectangle width="60" height="20" as="alternateBounds" />
          </mxGeometry>
        </mxCell>
        <mxCell id="YxBRKFH5x1Np5lWWQdls-138" value="" style="shape=partialRectangle;html=1;whiteSpace=wrap;connectable=0;strokeColor=inherit;overflow=hidden;fillColor=none;top=0;left=0;bottom=0;right=0;pointerEvents=1;fontSize=16;" vertex="1" parent="YxBRKFH5x1Np5lWWQdls-135">
          <mxGeometry x="120" width="60" height="20" as="geometry">
            <mxRectangle width="60" height="20" as="alternateBounds" />
          </mxGeometry>
        </mxCell>
        <mxCell id="YxBRKFH5x1Np5lWWQdls-139" value="" style="shape=tableRow;horizontal=0;startSize=0;swimlaneHead=0;swimlaneBody=0;strokeColor=inherit;top=0;left=0;bottom=0;right=0;collapsible=0;dropTarget=0;fillColor=none;points=[[0,0.5],[1,0.5]];portConstraint=eastwest;fontSize=16;" vertex="1" parent="YxBRKFH5x1Np5lWWQdls-126">
          <mxGeometry y="60" width="180" height="20" as="geometry" />
        </mxCell>
        <mxCell id="YxBRKFH5x1Np5lWWQdls-140" value="" style="shape=partialRectangle;html=1;whiteSpace=wrap;connectable=0;strokeColor=inherit;overflow=hidden;fillColor=none;top=0;left=0;bottom=0;right=0;pointerEvents=1;fontSize=16;" vertex="1" parent="YxBRKFH5x1Np5lWWQdls-139">
          <mxGeometry width="60" height="20" as="geometry">
            <mxRectangle width="60" height="20" as="alternateBounds" />
          </mxGeometry>
        </mxCell>
        <mxCell id="YxBRKFH5x1Np5lWWQdls-141" value="" style="shape=partialRectangle;html=1;whiteSpace=wrap;connectable=0;strokeColor=inherit;overflow=hidden;fillColor=none;top=0;left=0;bottom=0;right=0;pointerEvents=1;fontSize=16;" vertex="1" parent="YxBRKFH5x1Np5lWWQdls-139">
          <mxGeometry x="60" width="60" height="20" as="geometry">
            <mxRectangle width="60" height="20" as="alternateBounds" />
          </mxGeometry>
        </mxCell>
        <mxCell id="YxBRKFH5x1Np5lWWQdls-142" value="" style="shape=partialRectangle;html=1;whiteSpace=wrap;connectable=0;strokeColor=inherit;overflow=hidden;fillColor=none;top=0;left=0;bottom=0;right=0;pointerEvents=1;fontSize=16;" vertex="1" parent="YxBRKFH5x1Np5lWWQdls-139">
          <mxGeometry x="120" width="60" height="20" as="geometry">
            <mxRectangle width="60" height="20" as="alternateBounds" />
          </mxGeometry>
        </mxCell>
        <mxCell id="YxBRKFH5x1Np5lWWQdls-143" value="" style="shape=tableRow;horizontal=0;startSize=0;swimlaneHead=0;swimlaneBody=0;strokeColor=inherit;top=0;left=0;bottom=0;right=0;collapsible=0;dropTarget=0;fillColor=none;points=[[0,0.5],[1,0.5]];portConstraint=eastwest;fontSize=16;" vertex="1" parent="YxBRKFH5x1Np5lWWQdls-126">
          <mxGeometry y="80" width="180" height="20" as="geometry" />
        </mxCell>
        <mxCell id="YxBRKFH5x1Np5lWWQdls-144" value="" style="shape=partialRectangle;html=1;whiteSpace=wrap;connectable=0;strokeColor=inherit;overflow=hidden;fillColor=none;top=0;left=0;bottom=0;right=0;pointerEvents=1;fontSize=16;" vertex="1" parent="YxBRKFH5x1Np5lWWQdls-143">
          <mxGeometry width="60" height="20" as="geometry">
            <mxRectangle width="60" height="20" as="alternateBounds" />
          </mxGeometry>
        </mxCell>
        <mxCell id="YxBRKFH5x1Np5lWWQdls-145" value="" style="shape=partialRectangle;html=1;whiteSpace=wrap;connectable=0;strokeColor=inherit;overflow=hidden;fillColor=none;top=0;left=0;bottom=0;right=0;pointerEvents=1;fontSize=16;" vertex="1" parent="YxBRKFH5x1Np5lWWQdls-143">
          <mxGeometry x="60" width="60" height="20" as="geometry">
            <mxRectangle width="60" height="20" as="alternateBounds" />
          </mxGeometry>
        </mxCell>
        <mxCell id="YxBRKFH5x1Np5lWWQdls-146" value="" style="shape=partialRectangle;html=1;whiteSpace=wrap;connectable=0;strokeColor=inherit;overflow=hidden;fillColor=none;top=0;left=0;bottom=0;right=0;pointerEvents=1;fontSize=16;" vertex="1" parent="YxBRKFH5x1Np5lWWQdls-143">
          <mxGeometry x="120" width="60" height="20" as="geometry">
            <mxRectangle width="60" height="20" as="alternateBounds" />
          </mxGeometry>
        </mxCell>
        <mxCell id="YxBRKFH5x1Np5lWWQdls-147" value="" style="shape=tableRow;horizontal=0;startSize=0;swimlaneHead=0;swimlaneBody=0;strokeColor=inherit;top=0;left=0;bottom=0;right=0;collapsible=0;dropTarget=0;fillColor=none;points=[[0,0.5],[1,0.5]];portConstraint=eastwest;fontSize=16;" vertex="1" parent="YxBRKFH5x1Np5lWWQdls-126">
          <mxGeometry y="100" width="180" height="20" as="geometry" />
        </mxCell>
        <mxCell id="YxBRKFH5x1Np5lWWQdls-148" value="" style="shape=partialRectangle;html=1;whiteSpace=wrap;connectable=0;strokeColor=inherit;overflow=hidden;fillColor=none;top=0;left=0;bottom=0;right=0;pointerEvents=1;fontSize=16;" vertex="1" parent="YxBRKFH5x1Np5lWWQdls-147">
          <mxGeometry width="60" height="20" as="geometry">
            <mxRectangle width="60" height="20" as="alternateBounds" />
          </mxGeometry>
        </mxCell>
        <mxCell id="YxBRKFH5x1Np5lWWQdls-149" value="" style="shape=partialRectangle;html=1;whiteSpace=wrap;connectable=0;strokeColor=inherit;overflow=hidden;fillColor=none;top=0;left=0;bottom=0;right=0;pointerEvents=1;fontSize=16;" vertex="1" parent="YxBRKFH5x1Np5lWWQdls-147">
          <mxGeometry x="60" width="60" height="20" as="geometry">
            <mxRectangle width="60" height="20" as="alternateBounds" />
          </mxGeometry>
        </mxCell>
        <mxCell id="YxBRKFH5x1Np5lWWQdls-150" value="" style="shape=partialRectangle;html=1;whiteSpace=wrap;connectable=0;strokeColor=inherit;overflow=hidden;fillColor=none;top=0;left=0;bottom=0;right=0;pointerEvents=1;fontSize=16;" vertex="1" parent="YxBRKFH5x1Np5lWWQdls-147">
          <mxGeometry x="120" width="60" height="20" as="geometry">
            <mxRectangle width="60" height="20" as="alternateBounds" />
          </mxGeometry>
        </mxCell>
        <mxCell id="YxBRKFH5x1Np5lWWQdls-151" value="" style="shape=tableRow;horizontal=0;startSize=0;swimlaneHead=0;swimlaneBody=0;strokeColor=inherit;top=0;left=0;bottom=0;right=0;collapsible=0;dropTarget=0;fillColor=none;points=[[0,0.5],[1,0.5]];portConstraint=eastwest;fontSize=16;" vertex="1" parent="YxBRKFH5x1Np5lWWQdls-126">
          <mxGeometry y="120" width="180" height="20" as="geometry" />
        </mxCell>
        <mxCell id="YxBRKFH5x1Np5lWWQdls-152" value="" style="shape=partialRectangle;html=1;whiteSpace=wrap;connectable=0;strokeColor=inherit;overflow=hidden;fillColor=none;top=0;left=0;bottom=0;right=0;pointerEvents=1;fontSize=16;" vertex="1" parent="YxBRKFH5x1Np5lWWQdls-151">
          <mxGeometry width="60" height="20" as="geometry">
            <mxRectangle width="60" height="20" as="alternateBounds" />
          </mxGeometry>
        </mxCell>
        <mxCell id="YxBRKFH5x1Np5lWWQdls-153" value="" style="shape=partialRectangle;html=1;whiteSpace=wrap;connectable=0;strokeColor=inherit;overflow=hidden;fillColor=none;top=0;left=0;bottom=0;right=0;pointerEvents=1;fontSize=16;" vertex="1" parent="YxBRKFH5x1Np5lWWQdls-151">
          <mxGeometry x="60" width="60" height="20" as="geometry">
            <mxRectangle width="60" height="20" as="alternateBounds" />
          </mxGeometry>
        </mxCell>
        <mxCell id="YxBRKFH5x1Np5lWWQdls-154" value="" style="shape=partialRectangle;html=1;whiteSpace=wrap;connectable=0;strokeColor=inherit;overflow=hidden;fillColor=none;top=0;left=0;bottom=0;right=0;pointerEvents=1;fontSize=16;" vertex="1" parent="YxBRKFH5x1Np5lWWQdls-151">
          <mxGeometry x="120" width="60" height="20" as="geometry">
            <mxRectangle width="60" height="20" as="alternateBounds" />
          </mxGeometry>
        </mxCell>
        <mxCell id="YxBRKFH5x1Np5lWWQdls-155" value="" style="shape=tableRow;horizontal=0;startSize=0;swimlaneHead=0;swimlaneBody=0;strokeColor=inherit;top=0;left=0;bottom=0;right=0;collapsible=0;dropTarget=0;fillColor=none;points=[[0,0.5],[1,0.5]];portConstraint=eastwest;fontSize=16;" vertex="1" parent="YxBRKFH5x1Np5lWWQdls-126">
          <mxGeometry y="140" width="180" height="20" as="geometry" />
        </mxCell>
        <mxCell id="YxBRKFH5x1Np5lWWQdls-156" value="" style="shape=partialRectangle;html=1;whiteSpace=wrap;connectable=0;strokeColor=inherit;overflow=hidden;fillColor=none;top=0;left=0;bottom=0;right=0;pointerEvents=1;fontSize=16;" vertex="1" parent="YxBRKFH5x1Np5lWWQdls-155">
          <mxGeometry width="60" height="20" as="geometry">
            <mxRectangle width="60" height="20" as="alternateBounds" />
          </mxGeometry>
        </mxCell>
        <mxCell id="YxBRKFH5x1Np5lWWQdls-157" value="" style="shape=partialRectangle;html=1;whiteSpace=wrap;connectable=0;strokeColor=inherit;overflow=hidden;fillColor=none;top=0;left=0;bottom=0;right=0;pointerEvents=1;fontSize=16;" vertex="1" parent="YxBRKFH5x1Np5lWWQdls-155">
          <mxGeometry x="60" width="60" height="20" as="geometry">
            <mxRectangle width="60" height="20" as="alternateBounds" />
          </mxGeometry>
        </mxCell>
        <mxCell id="YxBRKFH5x1Np5lWWQdls-158" value="" style="shape=partialRectangle;html=1;whiteSpace=wrap;connectable=0;strokeColor=inherit;overflow=hidden;fillColor=none;top=0;left=0;bottom=0;right=0;pointerEvents=1;fontSize=16;" vertex="1" parent="YxBRKFH5x1Np5lWWQdls-155">
          <mxGeometry x="120" width="60" height="20" as="geometry">
            <mxRectangle width="60" height="20" as="alternateBounds" />
          </mxGeometry>
        </mxCell>
        <mxCell id="YxBRKFH5x1Np5lWWQdls-159" value="" style="shape=tableRow;horizontal=0;startSize=0;swimlaneHead=0;swimlaneBody=0;strokeColor=inherit;top=0;left=0;bottom=0;right=0;collapsible=0;dropTarget=0;fillColor=none;points=[[0,0.5],[1,0.5]];portConstraint=eastwest;fontSize=16;" vertex="1" parent="YxBRKFH5x1Np5lWWQdls-126">
          <mxGeometry y="160" width="180" height="20" as="geometry" />
        </mxCell>
        <mxCell id="YxBRKFH5x1Np5lWWQdls-160" value="" style="shape=partialRectangle;html=1;whiteSpace=wrap;connectable=0;strokeColor=inherit;overflow=hidden;fillColor=none;top=0;left=0;bottom=0;right=0;pointerEvents=1;fontSize=16;" vertex="1" parent="YxBRKFH5x1Np5lWWQdls-159">
          <mxGeometry width="60" height="20" as="geometry">
            <mxRectangle width="60" height="20" as="alternateBounds" />
          </mxGeometry>
        </mxCell>
        <mxCell id="YxBRKFH5x1Np5lWWQdls-161" value="" style="shape=partialRectangle;html=1;whiteSpace=wrap;connectable=0;strokeColor=inherit;overflow=hidden;fillColor=none;top=0;left=0;bottom=0;right=0;pointerEvents=1;fontSize=16;" vertex="1" parent="YxBRKFH5x1Np5lWWQdls-159">
          <mxGeometry x="60" width="60" height="20" as="geometry">
            <mxRectangle width="60" height="20" as="alternateBounds" />
          </mxGeometry>
        </mxCell>
        <mxCell id="YxBRKFH5x1Np5lWWQdls-162" value="" style="shape=partialRectangle;html=1;whiteSpace=wrap;connectable=0;strokeColor=inherit;overflow=hidden;fillColor=none;top=0;left=0;bottom=0;right=0;pointerEvents=1;fontSize=16;" vertex="1" parent="YxBRKFH5x1Np5lWWQdls-159">
          <mxGeometry x="120" width="60" height="20" as="geometry">
            <mxRectangle width="60" height="20" as="alternateBounds" />
          </mxGeometry>
        </mxCell>
        <mxCell id="YxBRKFH5x1Np5lWWQdls-270" value="" style="group" vertex="1" connectable="0" parent="YxBRKFH5x1Np5lWWQdls-124">
          <mxGeometry x="-30" y="65" width="240" height="140" as="geometry" />
        </mxCell>
        <mxCell id="YxBRKFH5x1Np5lWWQdls-261" value="" style="shape=ext;double=1;rounded=1;whiteSpace=wrap;html=1;" vertex="1" parent="YxBRKFH5x1Np5lWWQdls-270">
          <mxGeometry width="240" height="140" as="geometry" />
        </mxCell>
        <mxCell id="YxBRKFH5x1Np5lWWQdls-264" value="" style="group" vertex="1" connectable="0" parent="YxBRKFH5x1Np5lWWQdls-270">
          <mxGeometry x="95" y="20" width="50" height="40" as="geometry" />
        </mxCell>
        <mxCell id="YxBRKFH5x1Np5lWWQdls-262" value="" style="strokeWidth=2;html=1;shape=mxgraph.flowchart.extract_or_measurement;whiteSpace=wrap;fillColor=#FFFF33;" vertex="1" parent="YxBRKFH5x1Np5lWWQdls-264">
          <mxGeometry x="5" width="40" height="40" as="geometry" />
        </mxCell>
        <mxCell id="YxBRKFH5x1Np5lWWQdls-263" value="&lt;font color=&quot;#ff3333&quot; style=&quot;font-size: 18px;&quot;&gt;!&lt;/font&gt;" style="text;strokeColor=none;fillColor=none;html=1;fontSize=24;fontStyle=1;verticalAlign=middle;align=center;" vertex="1" parent="YxBRKFH5x1Np5lWWQdls-264">
          <mxGeometry y="10" width="50" height="30" as="geometry" />
        </mxCell>
        <mxCell id="YxBRKFH5x1Np5lWWQdls-265" value="&lt;font color=&quot;#ff3333&quot; style=&quot;font-size: 12px;&quot;&gt;Tem certeza que deseja voltar!!&lt;/font&gt;" style="text;strokeColor=none;fillColor=none;html=1;fontSize=24;fontStyle=1;verticalAlign=middle;align=center;" vertex="1" parent="YxBRKFH5x1Np5lWWQdls-270">
          <mxGeometry x="70" y="50" width="100" height="40" as="geometry" />
        </mxCell>
        <mxCell id="YxBRKFH5x1Np5lWWQdls-268" value="" style="group" vertex="1" connectable="0" parent="YxBRKFH5x1Np5lWWQdls-270">
          <mxGeometry x="55" y="90" width="130" height="40" as="geometry" />
        </mxCell>
        <mxCell id="YxBRKFH5x1Np5lWWQdls-266" value="Sim" style="ellipse;shape=doubleEllipse;whiteSpace=wrap;html=1;" vertex="1" parent="YxBRKFH5x1Np5lWWQdls-268">
          <mxGeometry width="50" height="40" as="geometry" />
        </mxCell>
        <mxCell id="YxBRKFH5x1Np5lWWQdls-267" value="Não" style="ellipse;shape=doubleEllipse;whiteSpace=wrap;html=1;" vertex="1" parent="YxBRKFH5x1Np5lWWQdls-268">
          <mxGeometry x="80" width="50" height="40" as="geometry" />
        </mxCell>
        <mxCell id="YxBRKFH5x1Np5lWWQdls-163" value="" style="group" vertex="1" connectable="0" parent="YxBRKFH5x1Np5lWWQdls-121">
          <mxGeometry x="20" y="455" width="260" height="30" as="geometry" />
        </mxCell>
        <mxCell id="YxBRKFH5x1Np5lWWQdls-164" value="voltar&amp;nbsp;" style="shape=ext;double=1;rounded=1;whiteSpace=wrap;html=1;" vertex="1" parent="YxBRKFH5x1Np5lWWQdls-163">
          <mxGeometry width="80" height="30" as="geometry" />
        </mxCell>
        <mxCell id="YxBRKFH5x1Np5lWWQdls-165" value="continuar" style="shape=ext;double=1;rounded=1;whiteSpace=wrap;html=1;" vertex="1" parent="YxBRKFH5x1Np5lWWQdls-163">
          <mxGeometry x="90" width="80" height="30" as="geometry" />
        </mxCell>
        <mxCell id="YxBRKFH5x1Np5lWWQdls-166" value="Cadastrar" style="shape=ext;double=1;rounded=1;whiteSpace=wrap;html=1;" vertex="1" parent="YxBRKFH5x1Np5lWWQdls-163">
          <mxGeometry x="180" width="80" height="30" as="geometry" />
        </mxCell>
        <mxCell id="YxBRKFH5x1Np5lWWQdls-168" value="" style="group" vertex="1" connectable="0" parent="1">
          <mxGeometry x="40" y="1200" width="290" height="540" as="geometry" />
        </mxCell>
        <mxCell id="YxBRKFH5x1Np5lWWQdls-169" value="" style="shape=ext;double=1;rounded=1;whiteSpace=wrap;html=1;rotation=90;" vertex="1" parent="YxBRKFH5x1Np5lWWQdls-168">
          <mxGeometry x="-125" y="125" width="540" height="290" as="geometry" />
        </mxCell>
        <mxCell id="YxBRKFH5x1Np5lWWQdls-170" value="Costura" style="ellipse;shape=doubleEllipse;whiteSpace=wrap;html=1;" vertex="1" parent="YxBRKFH5x1Np5lWWQdls-168">
          <mxGeometry x="90" y="65" width="130" height="60" as="geometry" />
        </mxCell>
        <mxCell id="YxBRKFH5x1Np5lWWQdls-171" value="" style="group" vertex="1" connectable="0" parent="YxBRKFH5x1Np5lWWQdls-168">
          <mxGeometry x="65" y="195" width="210" height="220" as="geometry" />
        </mxCell>
        <mxCell id="YxBRKFH5x1Np5lWWQdls-172" value="Buscar" style="shape=ext;double=1;rounded=1;whiteSpace=wrap;html=1;" vertex="1" parent="YxBRKFH5x1Np5lWWQdls-171">
          <mxGeometry x="5" width="170" height="20" as="geometry" />
        </mxCell>
        <mxCell id="YxBRKFH5x1Np5lWWQdls-173" value="" style="shape=table;startSize=0;container=1;collapsible=0;childLayout=tableLayout;fontSize=16;" vertex="1" parent="YxBRKFH5x1Np5lWWQdls-171">
          <mxGeometry y="40" width="180" height="180" as="geometry" />
        </mxCell>
        <mxCell id="YxBRKFH5x1Np5lWWQdls-174" value="" style="shape=tableRow;horizontal=0;startSize=0;swimlaneHead=0;swimlaneBody=0;strokeColor=inherit;top=0;left=0;bottom=0;right=0;collapsible=0;dropTarget=0;fillColor=none;points=[[0,0.5],[1,0.5]];portConstraint=eastwest;fontSize=16;" vertex="1" parent="YxBRKFH5x1Np5lWWQdls-173">
          <mxGeometry width="180" height="20" as="geometry" />
        </mxCell>
        <mxCell id="YxBRKFH5x1Np5lWWQdls-175" value="&lt;font style=&quot;font-size: 12px;&quot;&gt;cod&lt;/font&gt;" style="shape=partialRectangle;html=1;whiteSpace=wrap;connectable=0;strokeColor=inherit;overflow=hidden;fillColor=none;top=0;left=0;bottom=0;right=0;pointerEvents=1;fontSize=16;" vertex="1" parent="YxBRKFH5x1Np5lWWQdls-174">
          <mxGeometry width="60" height="20" as="geometry">
            <mxRectangle width="60" height="20" as="alternateBounds" />
          </mxGeometry>
        </mxCell>
        <mxCell id="YxBRKFH5x1Np5lWWQdls-176" value="&lt;font style=&quot;font-size: 12px;&quot;&gt;Nome&lt;/font&gt;" style="shape=partialRectangle;html=1;whiteSpace=wrap;connectable=0;strokeColor=inherit;overflow=hidden;fillColor=none;top=0;left=0;bottom=0;right=0;pointerEvents=1;fontSize=16;" vertex="1" parent="YxBRKFH5x1Np5lWWQdls-174">
          <mxGeometry x="60" width="60" height="20" as="geometry">
            <mxRectangle width="60" height="20" as="alternateBounds" />
          </mxGeometry>
        </mxCell>
        <mxCell id="YxBRKFH5x1Np5lWWQdls-177" value="&lt;font style=&quot;font-size: 12px;&quot;&gt;Numero&lt;/font&gt;" style="shape=partialRectangle;html=1;whiteSpace=wrap;connectable=0;strokeColor=inherit;overflow=hidden;fillColor=none;top=0;left=0;bottom=0;right=0;pointerEvents=1;fontSize=16;" vertex="1" parent="YxBRKFH5x1Np5lWWQdls-174">
          <mxGeometry x="120" width="60" height="20" as="geometry">
            <mxRectangle width="60" height="20" as="alternateBounds" />
          </mxGeometry>
        </mxCell>
        <mxCell id="YxBRKFH5x1Np5lWWQdls-178" value="" style="shape=tableRow;horizontal=0;startSize=0;swimlaneHead=0;swimlaneBody=0;strokeColor=inherit;top=0;left=0;bottom=0;right=0;collapsible=0;dropTarget=0;fillColor=none;points=[[0,0.5],[1,0.5]];portConstraint=eastwest;fontSize=16;" vertex="1" parent="YxBRKFH5x1Np5lWWQdls-173">
          <mxGeometry y="20" width="180" height="20" as="geometry" />
        </mxCell>
        <mxCell id="YxBRKFH5x1Np5lWWQdls-179" value="" style="shape=partialRectangle;html=1;whiteSpace=wrap;connectable=0;strokeColor=inherit;overflow=hidden;fillColor=none;top=0;left=0;bottom=0;right=0;pointerEvents=1;fontSize=16;" vertex="1" parent="YxBRKFH5x1Np5lWWQdls-178">
          <mxGeometry width="60" height="20" as="geometry">
            <mxRectangle width="60" height="20" as="alternateBounds" />
          </mxGeometry>
        </mxCell>
        <mxCell id="YxBRKFH5x1Np5lWWQdls-180" value="" style="shape=partialRectangle;html=1;whiteSpace=wrap;connectable=0;strokeColor=inherit;overflow=hidden;fillColor=none;top=0;left=0;bottom=0;right=0;pointerEvents=1;fontSize=16;" vertex="1" parent="YxBRKFH5x1Np5lWWQdls-178">
          <mxGeometry x="60" width="60" height="20" as="geometry">
            <mxRectangle width="60" height="20" as="alternateBounds" />
          </mxGeometry>
        </mxCell>
        <mxCell id="YxBRKFH5x1Np5lWWQdls-181" value="" style="shape=partialRectangle;html=1;whiteSpace=wrap;connectable=0;strokeColor=inherit;overflow=hidden;fillColor=none;top=0;left=0;bottom=0;right=0;pointerEvents=1;fontSize=16;" vertex="1" parent="YxBRKFH5x1Np5lWWQdls-178">
          <mxGeometry x="120" width="60" height="20" as="geometry">
            <mxRectangle width="60" height="20" as="alternateBounds" />
          </mxGeometry>
        </mxCell>
        <mxCell id="YxBRKFH5x1Np5lWWQdls-182" value="" style="shape=tableRow;horizontal=0;startSize=0;swimlaneHead=0;swimlaneBody=0;strokeColor=inherit;top=0;left=0;bottom=0;right=0;collapsible=0;dropTarget=0;fillColor=none;points=[[0,0.5],[1,0.5]];portConstraint=eastwest;fontSize=16;" vertex="1" parent="YxBRKFH5x1Np5lWWQdls-173">
          <mxGeometry y="40" width="180" height="20" as="geometry" />
        </mxCell>
        <mxCell id="YxBRKFH5x1Np5lWWQdls-183" value="" style="shape=partialRectangle;html=1;whiteSpace=wrap;connectable=0;strokeColor=inherit;overflow=hidden;fillColor=none;top=0;left=0;bottom=0;right=0;pointerEvents=1;fontSize=16;" vertex="1" parent="YxBRKFH5x1Np5lWWQdls-182">
          <mxGeometry width="60" height="20" as="geometry">
            <mxRectangle width="60" height="20" as="alternateBounds" />
          </mxGeometry>
        </mxCell>
        <mxCell id="YxBRKFH5x1Np5lWWQdls-184" value="" style="shape=partialRectangle;html=1;whiteSpace=wrap;connectable=0;strokeColor=inherit;overflow=hidden;fillColor=none;top=0;left=0;bottom=0;right=0;pointerEvents=1;fontSize=16;" vertex="1" parent="YxBRKFH5x1Np5lWWQdls-182">
          <mxGeometry x="60" width="60" height="20" as="geometry">
            <mxRectangle width="60" height="20" as="alternateBounds" />
          </mxGeometry>
        </mxCell>
        <mxCell id="YxBRKFH5x1Np5lWWQdls-185" value="" style="shape=partialRectangle;html=1;whiteSpace=wrap;connectable=0;strokeColor=inherit;overflow=hidden;fillColor=none;top=0;left=0;bottom=0;right=0;pointerEvents=1;fontSize=16;" vertex="1" parent="YxBRKFH5x1Np5lWWQdls-182">
          <mxGeometry x="120" width="60" height="20" as="geometry">
            <mxRectangle width="60" height="20" as="alternateBounds" />
          </mxGeometry>
        </mxCell>
        <mxCell id="YxBRKFH5x1Np5lWWQdls-186" value="" style="shape=tableRow;horizontal=0;startSize=0;swimlaneHead=0;swimlaneBody=0;strokeColor=inherit;top=0;left=0;bottom=0;right=0;collapsible=0;dropTarget=0;fillColor=none;points=[[0,0.5],[1,0.5]];portConstraint=eastwest;fontSize=16;" vertex="1" parent="YxBRKFH5x1Np5lWWQdls-173">
          <mxGeometry y="60" width="180" height="20" as="geometry" />
        </mxCell>
        <mxCell id="YxBRKFH5x1Np5lWWQdls-187" value="" style="shape=partialRectangle;html=1;whiteSpace=wrap;connectable=0;strokeColor=inherit;overflow=hidden;fillColor=none;top=0;left=0;bottom=0;right=0;pointerEvents=1;fontSize=16;" vertex="1" parent="YxBRKFH5x1Np5lWWQdls-186">
          <mxGeometry width="60" height="20" as="geometry">
            <mxRectangle width="60" height="20" as="alternateBounds" />
          </mxGeometry>
        </mxCell>
        <mxCell id="YxBRKFH5x1Np5lWWQdls-188" value="" style="shape=partialRectangle;html=1;whiteSpace=wrap;connectable=0;strokeColor=inherit;overflow=hidden;fillColor=none;top=0;left=0;bottom=0;right=0;pointerEvents=1;fontSize=16;" vertex="1" parent="YxBRKFH5x1Np5lWWQdls-186">
          <mxGeometry x="60" width="60" height="20" as="geometry">
            <mxRectangle width="60" height="20" as="alternateBounds" />
          </mxGeometry>
        </mxCell>
        <mxCell id="YxBRKFH5x1Np5lWWQdls-189" value="" style="shape=partialRectangle;html=1;whiteSpace=wrap;connectable=0;strokeColor=inherit;overflow=hidden;fillColor=none;top=0;left=0;bottom=0;right=0;pointerEvents=1;fontSize=16;" vertex="1" parent="YxBRKFH5x1Np5lWWQdls-186">
          <mxGeometry x="120" width="60" height="20" as="geometry">
            <mxRectangle width="60" height="20" as="alternateBounds" />
          </mxGeometry>
        </mxCell>
        <mxCell id="YxBRKFH5x1Np5lWWQdls-190" value="" style="shape=tableRow;horizontal=0;startSize=0;swimlaneHead=0;swimlaneBody=0;strokeColor=inherit;top=0;left=0;bottom=0;right=0;collapsible=0;dropTarget=0;fillColor=none;points=[[0,0.5],[1,0.5]];portConstraint=eastwest;fontSize=16;" vertex="1" parent="YxBRKFH5x1Np5lWWQdls-173">
          <mxGeometry y="80" width="180" height="20" as="geometry" />
        </mxCell>
        <mxCell id="YxBRKFH5x1Np5lWWQdls-191" value="" style="shape=partialRectangle;html=1;whiteSpace=wrap;connectable=0;strokeColor=inherit;overflow=hidden;fillColor=none;top=0;left=0;bottom=0;right=0;pointerEvents=1;fontSize=16;" vertex="1" parent="YxBRKFH5x1Np5lWWQdls-190">
          <mxGeometry width="60" height="20" as="geometry">
            <mxRectangle width="60" height="20" as="alternateBounds" />
          </mxGeometry>
        </mxCell>
        <mxCell id="YxBRKFH5x1Np5lWWQdls-192" value="" style="shape=partialRectangle;html=1;whiteSpace=wrap;connectable=0;strokeColor=inherit;overflow=hidden;fillColor=none;top=0;left=0;bottom=0;right=0;pointerEvents=1;fontSize=16;" vertex="1" parent="YxBRKFH5x1Np5lWWQdls-190">
          <mxGeometry x="60" width="60" height="20" as="geometry">
            <mxRectangle width="60" height="20" as="alternateBounds" />
          </mxGeometry>
        </mxCell>
        <mxCell id="YxBRKFH5x1Np5lWWQdls-193" value="" style="shape=partialRectangle;html=1;whiteSpace=wrap;connectable=0;strokeColor=inherit;overflow=hidden;fillColor=none;top=0;left=0;bottom=0;right=0;pointerEvents=1;fontSize=16;" vertex="1" parent="YxBRKFH5x1Np5lWWQdls-190">
          <mxGeometry x="120" width="60" height="20" as="geometry">
            <mxRectangle width="60" height="20" as="alternateBounds" />
          </mxGeometry>
        </mxCell>
        <mxCell id="YxBRKFH5x1Np5lWWQdls-194" value="" style="shape=tableRow;horizontal=0;startSize=0;swimlaneHead=0;swimlaneBody=0;strokeColor=inherit;top=0;left=0;bottom=0;right=0;collapsible=0;dropTarget=0;fillColor=none;points=[[0,0.5],[1,0.5]];portConstraint=eastwest;fontSize=16;" vertex="1" parent="YxBRKFH5x1Np5lWWQdls-173">
          <mxGeometry y="100" width="180" height="20" as="geometry" />
        </mxCell>
        <mxCell id="YxBRKFH5x1Np5lWWQdls-195" value="" style="shape=partialRectangle;html=1;whiteSpace=wrap;connectable=0;strokeColor=inherit;overflow=hidden;fillColor=none;top=0;left=0;bottom=0;right=0;pointerEvents=1;fontSize=16;" vertex="1" parent="YxBRKFH5x1Np5lWWQdls-194">
          <mxGeometry width="60" height="20" as="geometry">
            <mxRectangle width="60" height="20" as="alternateBounds" />
          </mxGeometry>
        </mxCell>
        <mxCell id="YxBRKFH5x1Np5lWWQdls-196" value="" style="shape=partialRectangle;html=1;whiteSpace=wrap;connectable=0;strokeColor=inherit;overflow=hidden;fillColor=none;top=0;left=0;bottom=0;right=0;pointerEvents=1;fontSize=16;" vertex="1" parent="YxBRKFH5x1Np5lWWQdls-194">
          <mxGeometry x="60" width="60" height="20" as="geometry">
            <mxRectangle width="60" height="20" as="alternateBounds" />
          </mxGeometry>
        </mxCell>
        <mxCell id="YxBRKFH5x1Np5lWWQdls-197" value="" style="shape=partialRectangle;html=1;whiteSpace=wrap;connectable=0;strokeColor=inherit;overflow=hidden;fillColor=none;top=0;left=0;bottom=0;right=0;pointerEvents=1;fontSize=16;" vertex="1" parent="YxBRKFH5x1Np5lWWQdls-194">
          <mxGeometry x="120" width="60" height="20" as="geometry">
            <mxRectangle width="60" height="20" as="alternateBounds" />
          </mxGeometry>
        </mxCell>
        <mxCell id="YxBRKFH5x1Np5lWWQdls-198" value="" style="shape=tableRow;horizontal=0;startSize=0;swimlaneHead=0;swimlaneBody=0;strokeColor=inherit;top=0;left=0;bottom=0;right=0;collapsible=0;dropTarget=0;fillColor=none;points=[[0,0.5],[1,0.5]];portConstraint=eastwest;fontSize=16;" vertex="1" parent="YxBRKFH5x1Np5lWWQdls-173">
          <mxGeometry y="120" width="180" height="20" as="geometry" />
        </mxCell>
        <mxCell id="YxBRKFH5x1Np5lWWQdls-199" value="" style="shape=partialRectangle;html=1;whiteSpace=wrap;connectable=0;strokeColor=inherit;overflow=hidden;fillColor=none;top=0;left=0;bottom=0;right=0;pointerEvents=1;fontSize=16;" vertex="1" parent="YxBRKFH5x1Np5lWWQdls-198">
          <mxGeometry width="60" height="20" as="geometry">
            <mxRectangle width="60" height="20" as="alternateBounds" />
          </mxGeometry>
        </mxCell>
        <mxCell id="YxBRKFH5x1Np5lWWQdls-200" value="" style="shape=partialRectangle;html=1;whiteSpace=wrap;connectable=0;strokeColor=inherit;overflow=hidden;fillColor=none;top=0;left=0;bottom=0;right=0;pointerEvents=1;fontSize=16;" vertex="1" parent="YxBRKFH5x1Np5lWWQdls-198">
          <mxGeometry x="60" width="60" height="20" as="geometry">
            <mxRectangle width="60" height="20" as="alternateBounds" />
          </mxGeometry>
        </mxCell>
        <mxCell id="YxBRKFH5x1Np5lWWQdls-201" value="" style="shape=partialRectangle;html=1;whiteSpace=wrap;connectable=0;strokeColor=inherit;overflow=hidden;fillColor=none;top=0;left=0;bottom=0;right=0;pointerEvents=1;fontSize=16;" vertex="1" parent="YxBRKFH5x1Np5lWWQdls-198">
          <mxGeometry x="120" width="60" height="20" as="geometry">
            <mxRectangle width="60" height="20" as="alternateBounds" />
          </mxGeometry>
        </mxCell>
        <mxCell id="YxBRKFH5x1Np5lWWQdls-202" value="" style="shape=tableRow;horizontal=0;startSize=0;swimlaneHead=0;swimlaneBody=0;strokeColor=inherit;top=0;left=0;bottom=0;right=0;collapsible=0;dropTarget=0;fillColor=none;points=[[0,0.5],[1,0.5]];portConstraint=eastwest;fontSize=16;" vertex="1" parent="YxBRKFH5x1Np5lWWQdls-173">
          <mxGeometry y="140" width="180" height="20" as="geometry" />
        </mxCell>
        <mxCell id="YxBRKFH5x1Np5lWWQdls-203" value="" style="shape=partialRectangle;html=1;whiteSpace=wrap;connectable=0;strokeColor=inherit;overflow=hidden;fillColor=none;top=0;left=0;bottom=0;right=0;pointerEvents=1;fontSize=16;" vertex="1" parent="YxBRKFH5x1Np5lWWQdls-202">
          <mxGeometry width="60" height="20" as="geometry">
            <mxRectangle width="60" height="20" as="alternateBounds" />
          </mxGeometry>
        </mxCell>
        <mxCell id="YxBRKFH5x1Np5lWWQdls-204" value="" style="shape=partialRectangle;html=1;whiteSpace=wrap;connectable=0;strokeColor=inherit;overflow=hidden;fillColor=none;top=0;left=0;bottom=0;right=0;pointerEvents=1;fontSize=16;" vertex="1" parent="YxBRKFH5x1Np5lWWQdls-202">
          <mxGeometry x="60" width="60" height="20" as="geometry">
            <mxRectangle width="60" height="20" as="alternateBounds" />
          </mxGeometry>
        </mxCell>
        <mxCell id="YxBRKFH5x1Np5lWWQdls-205" value="" style="shape=partialRectangle;html=1;whiteSpace=wrap;connectable=0;strokeColor=inherit;overflow=hidden;fillColor=none;top=0;left=0;bottom=0;right=0;pointerEvents=1;fontSize=16;" vertex="1" parent="YxBRKFH5x1Np5lWWQdls-202">
          <mxGeometry x="120" width="60" height="20" as="geometry">
            <mxRectangle width="60" height="20" as="alternateBounds" />
          </mxGeometry>
        </mxCell>
        <mxCell id="YxBRKFH5x1Np5lWWQdls-206" value="" style="shape=tableRow;horizontal=0;startSize=0;swimlaneHead=0;swimlaneBody=0;strokeColor=inherit;top=0;left=0;bottom=0;right=0;collapsible=0;dropTarget=0;fillColor=none;points=[[0,0.5],[1,0.5]];portConstraint=eastwest;fontSize=16;" vertex="1" parent="YxBRKFH5x1Np5lWWQdls-173">
          <mxGeometry y="160" width="180" height="20" as="geometry" />
        </mxCell>
        <mxCell id="YxBRKFH5x1Np5lWWQdls-207" value="" style="shape=partialRectangle;html=1;whiteSpace=wrap;connectable=0;strokeColor=inherit;overflow=hidden;fillColor=none;top=0;left=0;bottom=0;right=0;pointerEvents=1;fontSize=16;" vertex="1" parent="YxBRKFH5x1Np5lWWQdls-206">
          <mxGeometry width="60" height="20" as="geometry">
            <mxRectangle width="60" height="20" as="alternateBounds" />
          </mxGeometry>
        </mxCell>
        <mxCell id="YxBRKFH5x1Np5lWWQdls-208" value="" style="shape=partialRectangle;html=1;whiteSpace=wrap;connectable=0;strokeColor=inherit;overflow=hidden;fillColor=none;top=0;left=0;bottom=0;right=0;pointerEvents=1;fontSize=16;" vertex="1" parent="YxBRKFH5x1Np5lWWQdls-206">
          <mxGeometry x="60" width="60" height="20" as="geometry">
            <mxRectangle width="60" height="20" as="alternateBounds" />
          </mxGeometry>
        </mxCell>
        <mxCell id="YxBRKFH5x1Np5lWWQdls-209" value="" style="shape=partialRectangle;html=1;whiteSpace=wrap;connectable=0;strokeColor=inherit;overflow=hidden;fillColor=none;top=0;left=0;bottom=0;right=0;pointerEvents=1;fontSize=16;" vertex="1" parent="YxBRKFH5x1Np5lWWQdls-206">
          <mxGeometry x="120" width="60" height="20" as="geometry">
            <mxRectangle width="60" height="20" as="alternateBounds" />
          </mxGeometry>
        </mxCell>
        <mxCell id="YxBRKFH5x1Np5lWWQdls-271" value="" style="group" vertex="1" connectable="0" parent="YxBRKFH5x1Np5lWWQdls-171">
          <mxGeometry x="-30" y="65" width="240" height="140" as="geometry" />
        </mxCell>
        <mxCell id="YxBRKFH5x1Np5lWWQdls-272" value="" style="shape=ext;double=1;rounded=1;whiteSpace=wrap;html=1;" vertex="1" parent="YxBRKFH5x1Np5lWWQdls-271">
          <mxGeometry width="240" height="140" as="geometry" />
        </mxCell>
        <mxCell id="YxBRKFH5x1Np5lWWQdls-273" value="" style="group" vertex="1" connectable="0" parent="YxBRKFH5x1Np5lWWQdls-271">
          <mxGeometry x="95" y="20" width="50" height="40" as="geometry" />
        </mxCell>
        <mxCell id="YxBRKFH5x1Np5lWWQdls-274" value="" style="strokeWidth=2;html=1;shape=mxgraph.flowchart.extract_or_measurement;whiteSpace=wrap;fillColor=#FFFF33;" vertex="1" parent="YxBRKFH5x1Np5lWWQdls-273">
          <mxGeometry x="5" width="40" height="40" as="geometry" />
        </mxCell>
        <mxCell id="YxBRKFH5x1Np5lWWQdls-275" value="&lt;font color=&quot;#ff3333&quot; style=&quot;font-size: 18px;&quot;&gt;!&lt;/font&gt;" style="text;strokeColor=none;fillColor=none;html=1;fontSize=24;fontStyle=1;verticalAlign=middle;align=center;" vertex="1" parent="YxBRKFH5x1Np5lWWQdls-273">
          <mxGeometry y="10" width="50" height="30" as="geometry" />
        </mxCell>
        <mxCell id="YxBRKFH5x1Np5lWWQdls-276" value="&lt;font color=&quot;#ff3333&quot; style=&quot;font-size: 12px;&quot;&gt;Tem certeza que deseja cadastrar!!&lt;/font&gt;" style="text;strokeColor=none;fillColor=none;html=1;fontSize=24;fontStyle=1;verticalAlign=middle;align=center;" vertex="1" parent="YxBRKFH5x1Np5lWWQdls-271">
          <mxGeometry x="70" y="50" width="100" height="40" as="geometry" />
        </mxCell>
        <mxCell id="YxBRKFH5x1Np5lWWQdls-277" value="" style="group" vertex="1" connectable="0" parent="YxBRKFH5x1Np5lWWQdls-271">
          <mxGeometry x="55" y="90" width="130" height="40" as="geometry" />
        </mxCell>
        <mxCell id="YxBRKFH5x1Np5lWWQdls-278" value="Sim" style="ellipse;shape=doubleEllipse;whiteSpace=wrap;html=1;" vertex="1" parent="YxBRKFH5x1Np5lWWQdls-277">
          <mxGeometry width="50" height="40" as="geometry" />
        </mxCell>
        <mxCell id="YxBRKFH5x1Np5lWWQdls-279" value="Não" style="ellipse;shape=doubleEllipse;whiteSpace=wrap;html=1;" vertex="1" parent="YxBRKFH5x1Np5lWWQdls-277">
          <mxGeometry x="80" width="50" height="40" as="geometry" />
        </mxCell>
        <mxCell id="YxBRKFH5x1Np5lWWQdls-210" value="" style="group" vertex="1" connectable="0" parent="YxBRKFH5x1Np5lWWQdls-168">
          <mxGeometry x="20" y="455" width="260" height="30" as="geometry" />
        </mxCell>
        <mxCell id="YxBRKFH5x1Np5lWWQdls-211" value="voltar&amp;nbsp;" style="shape=ext;double=1;rounded=1;whiteSpace=wrap;html=1;" vertex="1" parent="YxBRKFH5x1Np5lWWQdls-210">
          <mxGeometry width="80" height="30" as="geometry" />
        </mxCell>
        <mxCell id="YxBRKFH5x1Np5lWWQdls-212" value="continuar" style="shape=ext;double=1;rounded=1;whiteSpace=wrap;html=1;" vertex="1" parent="YxBRKFH5x1Np5lWWQdls-210">
          <mxGeometry x="90" width="80" height="30" as="geometry" />
        </mxCell>
        <mxCell id="YxBRKFH5x1Np5lWWQdls-213" value="Cadastrar" style="shape=ext;double=1;rounded=1;whiteSpace=wrap;html=1;" vertex="1" parent="YxBRKFH5x1Np5lWWQdls-210">
          <mxGeometry x="180" width="80" height="30" as="geometry" />
        </mxCell>
        <mxCell id="YxBRKFH5x1Np5lWWQdls-215" value="" style="group" vertex="1" connectable="0" parent="1">
          <mxGeometry x="440" y="1200" width="290" height="540" as="geometry" />
        </mxCell>
        <mxCell id="YxBRKFH5x1Np5lWWQdls-216" value="" style="shape=ext;double=1;rounded=1;whiteSpace=wrap;html=1;rotation=90;" vertex="1" parent="YxBRKFH5x1Np5lWWQdls-215">
          <mxGeometry x="-125" y="125" width="540" height="290" as="geometry" />
        </mxCell>
        <mxCell id="YxBRKFH5x1Np5lWWQdls-217" value="Costura" style="ellipse;shape=doubleEllipse;whiteSpace=wrap;html=1;" vertex="1" parent="YxBRKFH5x1Np5lWWQdls-215">
          <mxGeometry x="90" y="65" width="130" height="60" as="geometry" />
        </mxCell>
        <mxCell id="YxBRKFH5x1Np5lWWQdls-218" value="" style="group" vertex="1" connectable="0" parent="YxBRKFH5x1Np5lWWQdls-215">
          <mxGeometry x="65" y="195" width="210" height="220" as="geometry" />
        </mxCell>
        <mxCell id="YxBRKFH5x1Np5lWWQdls-219" value="Buscar" style="shape=ext;double=1;rounded=1;whiteSpace=wrap;html=1;" vertex="1" parent="YxBRKFH5x1Np5lWWQdls-218">
          <mxGeometry x="5" width="170" height="20" as="geometry" />
        </mxCell>
        <mxCell id="YxBRKFH5x1Np5lWWQdls-220" value="" style="shape=table;startSize=0;container=1;collapsible=0;childLayout=tableLayout;fontSize=16;" vertex="1" parent="YxBRKFH5x1Np5lWWQdls-218">
          <mxGeometry y="40" width="180" height="180" as="geometry" />
        </mxCell>
        <mxCell id="YxBRKFH5x1Np5lWWQdls-221" value="" style="shape=tableRow;horizontal=0;startSize=0;swimlaneHead=0;swimlaneBody=0;strokeColor=inherit;top=0;left=0;bottom=0;right=0;collapsible=0;dropTarget=0;fillColor=none;points=[[0,0.5],[1,0.5]];portConstraint=eastwest;fontSize=16;" vertex="1" parent="YxBRKFH5x1Np5lWWQdls-220">
          <mxGeometry width="180" height="20" as="geometry" />
        </mxCell>
        <mxCell id="YxBRKFH5x1Np5lWWQdls-222" value="&lt;font style=&quot;font-size: 12px;&quot;&gt;cod&lt;/font&gt;" style="shape=partialRectangle;html=1;whiteSpace=wrap;connectable=0;strokeColor=inherit;overflow=hidden;fillColor=none;top=0;left=0;bottom=0;right=0;pointerEvents=1;fontSize=16;" vertex="1" parent="YxBRKFH5x1Np5lWWQdls-221">
          <mxGeometry width="60" height="20" as="geometry">
            <mxRectangle width="60" height="20" as="alternateBounds" />
          </mxGeometry>
        </mxCell>
        <mxCell id="YxBRKFH5x1Np5lWWQdls-223" value="&lt;font style=&quot;font-size: 12px;&quot;&gt;Nome&lt;/font&gt;" style="shape=partialRectangle;html=1;whiteSpace=wrap;connectable=0;strokeColor=inherit;overflow=hidden;fillColor=none;top=0;left=0;bottom=0;right=0;pointerEvents=1;fontSize=16;" vertex="1" parent="YxBRKFH5x1Np5lWWQdls-221">
          <mxGeometry x="60" width="60" height="20" as="geometry">
            <mxRectangle width="60" height="20" as="alternateBounds" />
          </mxGeometry>
        </mxCell>
        <mxCell id="YxBRKFH5x1Np5lWWQdls-224" value="&lt;font style=&quot;font-size: 12px;&quot;&gt;Numero&lt;/font&gt;" style="shape=partialRectangle;html=1;whiteSpace=wrap;connectable=0;strokeColor=inherit;overflow=hidden;fillColor=none;top=0;left=0;bottom=0;right=0;pointerEvents=1;fontSize=16;" vertex="1" parent="YxBRKFH5x1Np5lWWQdls-221">
          <mxGeometry x="120" width="60" height="20" as="geometry">
            <mxRectangle width="60" height="20" as="alternateBounds" />
          </mxGeometry>
        </mxCell>
        <mxCell id="YxBRKFH5x1Np5lWWQdls-225" value="" style="shape=tableRow;horizontal=0;startSize=0;swimlaneHead=0;swimlaneBody=0;strokeColor=inherit;top=0;left=0;bottom=0;right=0;collapsible=0;dropTarget=0;fillColor=none;points=[[0,0.5],[1,0.5]];portConstraint=eastwest;fontSize=16;" vertex="1" parent="YxBRKFH5x1Np5lWWQdls-220">
          <mxGeometry y="20" width="180" height="20" as="geometry" />
        </mxCell>
        <mxCell id="YxBRKFH5x1Np5lWWQdls-226" value="" style="shape=partialRectangle;html=1;whiteSpace=wrap;connectable=0;strokeColor=inherit;overflow=hidden;fillColor=none;top=0;left=0;bottom=0;right=0;pointerEvents=1;fontSize=16;" vertex="1" parent="YxBRKFH5x1Np5lWWQdls-225">
          <mxGeometry width="60" height="20" as="geometry">
            <mxRectangle width="60" height="20" as="alternateBounds" />
          </mxGeometry>
        </mxCell>
        <mxCell id="YxBRKFH5x1Np5lWWQdls-227" value="" style="shape=partialRectangle;html=1;whiteSpace=wrap;connectable=0;strokeColor=inherit;overflow=hidden;fillColor=none;top=0;left=0;bottom=0;right=0;pointerEvents=1;fontSize=16;" vertex="1" parent="YxBRKFH5x1Np5lWWQdls-225">
          <mxGeometry x="60" width="60" height="20" as="geometry">
            <mxRectangle width="60" height="20" as="alternateBounds" />
          </mxGeometry>
        </mxCell>
        <mxCell id="YxBRKFH5x1Np5lWWQdls-228" value="" style="shape=partialRectangle;html=1;whiteSpace=wrap;connectable=0;strokeColor=inherit;overflow=hidden;fillColor=none;top=0;left=0;bottom=0;right=0;pointerEvents=1;fontSize=16;" vertex="1" parent="YxBRKFH5x1Np5lWWQdls-225">
          <mxGeometry x="120" width="60" height="20" as="geometry">
            <mxRectangle width="60" height="20" as="alternateBounds" />
          </mxGeometry>
        </mxCell>
        <mxCell id="YxBRKFH5x1Np5lWWQdls-229" value="" style="shape=tableRow;horizontal=0;startSize=0;swimlaneHead=0;swimlaneBody=0;strokeColor=inherit;top=0;left=0;bottom=0;right=0;collapsible=0;dropTarget=0;fillColor=none;points=[[0,0.5],[1,0.5]];portConstraint=eastwest;fontSize=16;" vertex="1" parent="YxBRKFH5x1Np5lWWQdls-220">
          <mxGeometry y="40" width="180" height="20" as="geometry" />
        </mxCell>
        <mxCell id="YxBRKFH5x1Np5lWWQdls-230" value="" style="shape=partialRectangle;html=1;whiteSpace=wrap;connectable=0;strokeColor=inherit;overflow=hidden;fillColor=none;top=0;left=0;bottom=0;right=0;pointerEvents=1;fontSize=16;" vertex="1" parent="YxBRKFH5x1Np5lWWQdls-229">
          <mxGeometry width="60" height="20" as="geometry">
            <mxRectangle width="60" height="20" as="alternateBounds" />
          </mxGeometry>
        </mxCell>
        <mxCell id="YxBRKFH5x1Np5lWWQdls-231" value="" style="shape=partialRectangle;html=1;whiteSpace=wrap;connectable=0;strokeColor=inherit;overflow=hidden;fillColor=none;top=0;left=0;bottom=0;right=0;pointerEvents=1;fontSize=16;" vertex="1" parent="YxBRKFH5x1Np5lWWQdls-229">
          <mxGeometry x="60" width="60" height="20" as="geometry">
            <mxRectangle width="60" height="20" as="alternateBounds" />
          </mxGeometry>
        </mxCell>
        <mxCell id="YxBRKFH5x1Np5lWWQdls-232" value="" style="shape=partialRectangle;html=1;whiteSpace=wrap;connectable=0;strokeColor=inherit;overflow=hidden;fillColor=none;top=0;left=0;bottom=0;right=0;pointerEvents=1;fontSize=16;" vertex="1" parent="YxBRKFH5x1Np5lWWQdls-229">
          <mxGeometry x="120" width="60" height="20" as="geometry">
            <mxRectangle width="60" height="20" as="alternateBounds" />
          </mxGeometry>
        </mxCell>
        <mxCell id="YxBRKFH5x1Np5lWWQdls-233" value="" style="shape=tableRow;horizontal=0;startSize=0;swimlaneHead=0;swimlaneBody=0;strokeColor=inherit;top=0;left=0;bottom=0;right=0;collapsible=0;dropTarget=0;fillColor=none;points=[[0,0.5],[1,0.5]];portConstraint=eastwest;fontSize=16;" vertex="1" parent="YxBRKFH5x1Np5lWWQdls-220">
          <mxGeometry y="60" width="180" height="20" as="geometry" />
        </mxCell>
        <mxCell id="YxBRKFH5x1Np5lWWQdls-234" value="" style="shape=partialRectangle;html=1;whiteSpace=wrap;connectable=0;strokeColor=inherit;overflow=hidden;fillColor=none;top=0;left=0;bottom=0;right=0;pointerEvents=1;fontSize=16;" vertex="1" parent="YxBRKFH5x1Np5lWWQdls-233">
          <mxGeometry width="60" height="20" as="geometry">
            <mxRectangle width="60" height="20" as="alternateBounds" />
          </mxGeometry>
        </mxCell>
        <mxCell id="YxBRKFH5x1Np5lWWQdls-235" value="" style="shape=partialRectangle;html=1;whiteSpace=wrap;connectable=0;strokeColor=inherit;overflow=hidden;fillColor=none;top=0;left=0;bottom=0;right=0;pointerEvents=1;fontSize=16;" vertex="1" parent="YxBRKFH5x1Np5lWWQdls-233">
          <mxGeometry x="60" width="60" height="20" as="geometry">
            <mxRectangle width="60" height="20" as="alternateBounds" />
          </mxGeometry>
        </mxCell>
        <mxCell id="YxBRKFH5x1Np5lWWQdls-236" value="" style="shape=partialRectangle;html=1;whiteSpace=wrap;connectable=0;strokeColor=inherit;overflow=hidden;fillColor=none;top=0;left=0;bottom=0;right=0;pointerEvents=1;fontSize=16;" vertex="1" parent="YxBRKFH5x1Np5lWWQdls-233">
          <mxGeometry x="120" width="60" height="20" as="geometry">
            <mxRectangle width="60" height="20" as="alternateBounds" />
          </mxGeometry>
        </mxCell>
        <mxCell id="YxBRKFH5x1Np5lWWQdls-237" value="" style="shape=tableRow;horizontal=0;startSize=0;swimlaneHead=0;swimlaneBody=0;strokeColor=inherit;top=0;left=0;bottom=0;right=0;collapsible=0;dropTarget=0;fillColor=none;points=[[0,0.5],[1,0.5]];portConstraint=eastwest;fontSize=16;" vertex="1" parent="YxBRKFH5x1Np5lWWQdls-220">
          <mxGeometry y="80" width="180" height="20" as="geometry" />
        </mxCell>
        <mxCell id="YxBRKFH5x1Np5lWWQdls-238" value="" style="shape=partialRectangle;html=1;whiteSpace=wrap;connectable=0;strokeColor=inherit;overflow=hidden;fillColor=none;top=0;left=0;bottom=0;right=0;pointerEvents=1;fontSize=16;" vertex="1" parent="YxBRKFH5x1Np5lWWQdls-237">
          <mxGeometry width="60" height="20" as="geometry">
            <mxRectangle width="60" height="20" as="alternateBounds" />
          </mxGeometry>
        </mxCell>
        <mxCell id="YxBRKFH5x1Np5lWWQdls-239" value="" style="shape=partialRectangle;html=1;whiteSpace=wrap;connectable=0;strokeColor=inherit;overflow=hidden;fillColor=none;top=0;left=0;bottom=0;right=0;pointerEvents=1;fontSize=16;" vertex="1" parent="YxBRKFH5x1Np5lWWQdls-237">
          <mxGeometry x="60" width="60" height="20" as="geometry">
            <mxRectangle width="60" height="20" as="alternateBounds" />
          </mxGeometry>
        </mxCell>
        <mxCell id="YxBRKFH5x1Np5lWWQdls-240" value="" style="shape=partialRectangle;html=1;whiteSpace=wrap;connectable=0;strokeColor=inherit;overflow=hidden;fillColor=none;top=0;left=0;bottom=0;right=0;pointerEvents=1;fontSize=16;" vertex="1" parent="YxBRKFH5x1Np5lWWQdls-237">
          <mxGeometry x="120" width="60" height="20" as="geometry">
            <mxRectangle width="60" height="20" as="alternateBounds" />
          </mxGeometry>
        </mxCell>
        <mxCell id="YxBRKFH5x1Np5lWWQdls-241" value="" style="shape=tableRow;horizontal=0;startSize=0;swimlaneHead=0;swimlaneBody=0;strokeColor=inherit;top=0;left=0;bottom=0;right=0;collapsible=0;dropTarget=0;fillColor=none;points=[[0,0.5],[1,0.5]];portConstraint=eastwest;fontSize=16;" vertex="1" parent="YxBRKFH5x1Np5lWWQdls-220">
          <mxGeometry y="100" width="180" height="20" as="geometry" />
        </mxCell>
        <mxCell id="YxBRKFH5x1Np5lWWQdls-242" value="" style="shape=partialRectangle;html=1;whiteSpace=wrap;connectable=0;strokeColor=inherit;overflow=hidden;fillColor=none;top=0;left=0;bottom=0;right=0;pointerEvents=1;fontSize=16;" vertex="1" parent="YxBRKFH5x1Np5lWWQdls-241">
          <mxGeometry width="60" height="20" as="geometry">
            <mxRectangle width="60" height="20" as="alternateBounds" />
          </mxGeometry>
        </mxCell>
        <mxCell id="YxBRKFH5x1Np5lWWQdls-243" value="" style="shape=partialRectangle;html=1;whiteSpace=wrap;connectable=0;strokeColor=inherit;overflow=hidden;fillColor=none;top=0;left=0;bottom=0;right=0;pointerEvents=1;fontSize=16;" vertex="1" parent="YxBRKFH5x1Np5lWWQdls-241">
          <mxGeometry x="60" width="60" height="20" as="geometry">
            <mxRectangle width="60" height="20" as="alternateBounds" />
          </mxGeometry>
        </mxCell>
        <mxCell id="YxBRKFH5x1Np5lWWQdls-244" value="" style="shape=partialRectangle;html=1;whiteSpace=wrap;connectable=0;strokeColor=inherit;overflow=hidden;fillColor=none;top=0;left=0;bottom=0;right=0;pointerEvents=1;fontSize=16;" vertex="1" parent="YxBRKFH5x1Np5lWWQdls-241">
          <mxGeometry x="120" width="60" height="20" as="geometry">
            <mxRectangle width="60" height="20" as="alternateBounds" />
          </mxGeometry>
        </mxCell>
        <mxCell id="YxBRKFH5x1Np5lWWQdls-245" value="" style="shape=tableRow;horizontal=0;startSize=0;swimlaneHead=0;swimlaneBody=0;strokeColor=inherit;top=0;left=0;bottom=0;right=0;collapsible=0;dropTarget=0;fillColor=none;points=[[0,0.5],[1,0.5]];portConstraint=eastwest;fontSize=16;" vertex="1" parent="YxBRKFH5x1Np5lWWQdls-220">
          <mxGeometry y="120" width="180" height="20" as="geometry" />
        </mxCell>
        <mxCell id="YxBRKFH5x1Np5lWWQdls-246" value="" style="shape=partialRectangle;html=1;whiteSpace=wrap;connectable=0;strokeColor=inherit;overflow=hidden;fillColor=none;top=0;left=0;bottom=0;right=0;pointerEvents=1;fontSize=16;" vertex="1" parent="YxBRKFH5x1Np5lWWQdls-245">
          <mxGeometry width="60" height="20" as="geometry">
            <mxRectangle width="60" height="20" as="alternateBounds" />
          </mxGeometry>
        </mxCell>
        <mxCell id="YxBRKFH5x1Np5lWWQdls-247" value="" style="shape=partialRectangle;html=1;whiteSpace=wrap;connectable=0;strokeColor=inherit;overflow=hidden;fillColor=none;top=0;left=0;bottom=0;right=0;pointerEvents=1;fontSize=16;" vertex="1" parent="YxBRKFH5x1Np5lWWQdls-245">
          <mxGeometry x="60" width="60" height="20" as="geometry">
            <mxRectangle width="60" height="20" as="alternateBounds" />
          </mxGeometry>
        </mxCell>
        <mxCell id="YxBRKFH5x1Np5lWWQdls-248" value="" style="shape=partialRectangle;html=1;whiteSpace=wrap;connectable=0;strokeColor=inherit;overflow=hidden;fillColor=none;top=0;left=0;bottom=0;right=0;pointerEvents=1;fontSize=16;" vertex="1" parent="YxBRKFH5x1Np5lWWQdls-245">
          <mxGeometry x="120" width="60" height="20" as="geometry">
            <mxRectangle width="60" height="20" as="alternateBounds" />
          </mxGeometry>
        </mxCell>
        <mxCell id="YxBRKFH5x1Np5lWWQdls-249" value="" style="shape=tableRow;horizontal=0;startSize=0;swimlaneHead=0;swimlaneBody=0;strokeColor=inherit;top=0;left=0;bottom=0;right=0;collapsible=0;dropTarget=0;fillColor=none;points=[[0,0.5],[1,0.5]];portConstraint=eastwest;fontSize=16;" vertex="1" parent="YxBRKFH5x1Np5lWWQdls-220">
          <mxGeometry y="140" width="180" height="20" as="geometry" />
        </mxCell>
        <mxCell id="YxBRKFH5x1Np5lWWQdls-250" value="" style="shape=partialRectangle;html=1;whiteSpace=wrap;connectable=0;strokeColor=inherit;overflow=hidden;fillColor=none;top=0;left=0;bottom=0;right=0;pointerEvents=1;fontSize=16;" vertex="1" parent="YxBRKFH5x1Np5lWWQdls-249">
          <mxGeometry width="60" height="20" as="geometry">
            <mxRectangle width="60" height="20" as="alternateBounds" />
          </mxGeometry>
        </mxCell>
        <mxCell id="YxBRKFH5x1Np5lWWQdls-251" value="" style="shape=partialRectangle;html=1;whiteSpace=wrap;connectable=0;strokeColor=inherit;overflow=hidden;fillColor=none;top=0;left=0;bottom=0;right=0;pointerEvents=1;fontSize=16;" vertex="1" parent="YxBRKFH5x1Np5lWWQdls-249">
          <mxGeometry x="60" width="60" height="20" as="geometry">
            <mxRectangle width="60" height="20" as="alternateBounds" />
          </mxGeometry>
        </mxCell>
        <mxCell id="YxBRKFH5x1Np5lWWQdls-252" value="" style="shape=partialRectangle;html=1;whiteSpace=wrap;connectable=0;strokeColor=inherit;overflow=hidden;fillColor=none;top=0;left=0;bottom=0;right=0;pointerEvents=1;fontSize=16;" vertex="1" parent="YxBRKFH5x1Np5lWWQdls-249">
          <mxGeometry x="120" width="60" height="20" as="geometry">
            <mxRectangle width="60" height="20" as="alternateBounds" />
          </mxGeometry>
        </mxCell>
        <mxCell id="YxBRKFH5x1Np5lWWQdls-253" value="" style="shape=tableRow;horizontal=0;startSize=0;swimlaneHead=0;swimlaneBody=0;strokeColor=inherit;top=0;left=0;bottom=0;right=0;collapsible=0;dropTarget=0;fillColor=none;points=[[0,0.5],[1,0.5]];portConstraint=eastwest;fontSize=16;" vertex="1" parent="YxBRKFH5x1Np5lWWQdls-220">
          <mxGeometry y="160" width="180" height="20" as="geometry" />
        </mxCell>
        <mxCell id="YxBRKFH5x1Np5lWWQdls-254" value="" style="shape=partialRectangle;html=1;whiteSpace=wrap;connectable=0;strokeColor=inherit;overflow=hidden;fillColor=none;top=0;left=0;bottom=0;right=0;pointerEvents=1;fontSize=16;" vertex="1" parent="YxBRKFH5x1Np5lWWQdls-253">
          <mxGeometry width="60" height="20" as="geometry">
            <mxRectangle width="60" height="20" as="alternateBounds" />
          </mxGeometry>
        </mxCell>
        <mxCell id="YxBRKFH5x1Np5lWWQdls-255" value="" style="shape=partialRectangle;html=1;whiteSpace=wrap;connectable=0;strokeColor=inherit;overflow=hidden;fillColor=none;top=0;left=0;bottom=0;right=0;pointerEvents=1;fontSize=16;" vertex="1" parent="YxBRKFH5x1Np5lWWQdls-253">
          <mxGeometry x="60" width="60" height="20" as="geometry">
            <mxRectangle width="60" height="20" as="alternateBounds" />
          </mxGeometry>
        </mxCell>
        <mxCell id="YxBRKFH5x1Np5lWWQdls-256" value="" style="shape=partialRectangle;html=1;whiteSpace=wrap;connectable=0;strokeColor=inherit;overflow=hidden;fillColor=none;top=0;left=0;bottom=0;right=0;pointerEvents=1;fontSize=16;" vertex="1" parent="YxBRKFH5x1Np5lWWQdls-253">
          <mxGeometry x="120" width="60" height="20" as="geometry">
            <mxRectangle width="60" height="20" as="alternateBounds" />
          </mxGeometry>
        </mxCell>
        <mxCell id="YxBRKFH5x1Np5lWWQdls-285" value="" style="group" vertex="1" connectable="0" parent="YxBRKFH5x1Np5lWWQdls-218">
          <mxGeometry x="-30" y="65" width="240" height="140" as="geometry" />
        </mxCell>
        <mxCell id="YxBRKFH5x1Np5lWWQdls-286" value="" style="shape=ext;double=1;rounded=1;whiteSpace=wrap;html=1;" vertex="1" parent="YxBRKFH5x1Np5lWWQdls-285">
          <mxGeometry width="240" height="140" as="geometry" />
        </mxCell>
        <mxCell id="YxBRKFH5x1Np5lWWQdls-287" value="" style="group" vertex="1" connectable="0" parent="YxBRKFH5x1Np5lWWQdls-285">
          <mxGeometry x="95" y="20" width="50" height="40" as="geometry" />
        </mxCell>
        <mxCell id="YxBRKFH5x1Np5lWWQdls-288" value="" style="strokeWidth=2;html=1;shape=mxgraph.flowchart.extract_or_measurement;whiteSpace=wrap;fillColor=#FFFF33;" vertex="1" parent="YxBRKFH5x1Np5lWWQdls-287">
          <mxGeometry x="5" width="40" height="40" as="geometry" />
        </mxCell>
        <mxCell id="YxBRKFH5x1Np5lWWQdls-289" value="&lt;font color=&quot;#ff3333&quot; style=&quot;font-size: 18px;&quot;&gt;!&lt;/font&gt;" style="text;strokeColor=none;fillColor=none;html=1;fontSize=24;fontStyle=1;verticalAlign=middle;align=center;" vertex="1" parent="YxBRKFH5x1Np5lWWQdls-287">
          <mxGeometry y="10" width="50" height="30" as="geometry" />
        </mxCell>
        <mxCell id="YxBRKFH5x1Np5lWWQdls-290" value="&lt;font color=&quot;#ff3333&quot; style=&quot;font-size: 12px;&quot;&gt;Tem certeza que deseja continuar!!&lt;/font&gt;" style="text;strokeColor=none;fillColor=none;html=1;fontSize=24;fontStyle=1;verticalAlign=middle;align=center;" vertex="1" parent="YxBRKFH5x1Np5lWWQdls-285">
          <mxGeometry x="70" y="50" width="100" height="40" as="geometry" />
        </mxCell>
        <mxCell id="YxBRKFH5x1Np5lWWQdls-291" value="" style="group" vertex="1" connectable="0" parent="YxBRKFH5x1Np5lWWQdls-285">
          <mxGeometry x="55" y="90" width="130" height="40" as="geometry" />
        </mxCell>
        <mxCell id="YxBRKFH5x1Np5lWWQdls-292" value="Sim" style="ellipse;shape=doubleEllipse;whiteSpace=wrap;html=1;" vertex="1" parent="YxBRKFH5x1Np5lWWQdls-291">
          <mxGeometry width="50" height="40" as="geometry" />
        </mxCell>
        <mxCell id="YxBRKFH5x1Np5lWWQdls-293" value="Não" style="ellipse;shape=doubleEllipse;whiteSpace=wrap;html=1;" vertex="1" parent="YxBRKFH5x1Np5lWWQdls-291">
          <mxGeometry x="80" width="50" height="40" as="geometry" />
        </mxCell>
        <mxCell id="YxBRKFH5x1Np5lWWQdls-257" value="" style="group" vertex="1" connectable="0" parent="YxBRKFH5x1Np5lWWQdls-215">
          <mxGeometry x="20" y="455" width="260" height="30" as="geometry" />
        </mxCell>
        <mxCell id="YxBRKFH5x1Np5lWWQdls-258" value="voltar&amp;nbsp;" style="shape=ext;double=1;rounded=1;whiteSpace=wrap;html=1;" vertex="1" parent="YxBRKFH5x1Np5lWWQdls-257">
          <mxGeometry width="80" height="30" as="geometry" />
        </mxCell>
        <mxCell id="YxBRKFH5x1Np5lWWQdls-259" value="continuar" style="shape=ext;double=1;rounded=1;whiteSpace=wrap;html=1;" vertex="1" parent="YxBRKFH5x1Np5lWWQdls-257">
          <mxGeometry x="90" width="80" height="30" as="geometry" />
        </mxCell>
        <mxCell id="YxBRKFH5x1Np5lWWQdls-260" value="Cadastrar" style="shape=ext;double=1;rounded=1;whiteSpace=wrap;html=1;" vertex="1" parent="YxBRKFH5x1Np5lWWQdls-257">
          <mxGeometry x="180" width="80" height="30" as="geometry" />
        </mxCell>
      </root>
    </mxGraphModel>
  </diagram>
</mxfile>
